<?xml version="1.0" encoding="UTF-8"?>
<svg version="1.1" xmlns="http://www.w3.org/2000/svg" width="500" height="500">
<path d="M0 0 C3.41543498 0.02148072 6.82876761 0.00002429 10.24414062 -0.02539062 C30.00415254 -0.05114943 49.43572387 2.31052484 68.47851562 7.70898438 C70.06575439 8.1489978 70.06575439 8.1489978 71.68505859 8.59790039 C88.96565835 13.5317335 105.62163358 19.94467634 121.41601562 28.52148438 C122.05909668 28.86115234 122.70217773 29.20082031 123.36474609 29.55078125 C134.34709256 35.35399902 144.43401276 42.14442346 154.41601562 49.52148438 C155.07956055 50.0092334 155.74310547 50.49698242 156.42675781 50.99951172 C158.28520634 52.37171119 160.13420808 53.75535395 161.97851562 55.14648438 C162.5330542 55.56019287 163.08759277 55.97390137 163.65893555 56.40014648 C164.95024414 57.39183977 166.1895053 58.45068754 167.41601562 59.52148438 C167.41601562 60.18148437 167.41601562 60.84148438 167.41601562 61.52148438 C168.26534668 61.8840332 168.26534668 61.8840332 169.13183594 62.25390625 C171.86824302 63.77244255 173.74670901 65.59300318 175.96289062 67.80273438 C176.80722656 68.64449219 177.6515625 69.48625 178.52148438 70.35351562 C179.39417969 71.23394531 180.266875 72.114375 181.16601562 73.02148438 C182.05417969 73.90191406 182.94234375 74.78234375 183.85742188 75.68945312 C185.11619141 76.95208984 185.11619141 76.95208984 186.40039062 78.24023438 C187.17092773 79.01302734 187.94146484 79.78582031 188.73535156 80.58203125 C190.41601562 82.52148438 190.41601562 82.52148438 190.41601562 84.52148438 C191.07601563 84.52148438 191.73601562 84.52148438 192.41601562 84.52148438 C192.41601562 85.18148437 192.41601562 85.84148437 192.41601562 86.52148438 C193.07601563 86.52148438 193.73601562 86.52148438 194.41601562 86.52148438 C196.00511056 88.36116736 197.46705823 90.20014023 198.91601562 92.14648438 C199.35816406 92.73333008 199.8003125 93.32017578 200.25585938 93.92480469 C201.65047117 95.78461632 203.03365446 97.65255557 204.41601562 99.52148438 C204.84011719 100.08770508 205.26421875 100.65392578 205.70117188 101.23730469 C212.68667701 110.58233389 218.68353952 120.36702475 224.41601562 130.52148438 C224.75793945 131.11880371 225.09986328 131.71612305 225.45214844 132.33154297 C229.30763259 139.0834838 232.51614603 145.85093329 235.17773438 153.15820312 C236.18207054 155.88606887 237.24564224 158.56632277 238.34570312 161.25585938 C247.63122151 184.39492934 253.4879952 209.75670485 253.65429688 234.70898438 C253.66236862 235.88372314 253.67044037 237.05846191 253.67875671 238.26879883 C253.69255187 240.75665841 253.70329432 243.24453655 253.71118164 245.73242188 C253.72260685 248.22987578 253.74290473 250.72730714 253.77270508 253.22460938 C254.18135969 287.56072912 248.01260646 323.5498452 232.41601562 354.52148438 C231.79027092 355.79585856 231.16533755 357.07063131 230.54101562 358.34570312 C228.83963474 361.80359845 227.10800819 365.24500636 225.35644531 368.67773438 C224.55031458 370.25818591 223.7519175 371.84257797 222.95507812 373.42773438 C214.17927883 390.26915268 202.04636186 405.86265642 189.08007812 419.66992188 C186.57704219 422.34912456 184.14920956 425.080549 181.72851562 427.83398438 C177.8848813 432.10544372 173.83022182 435.85345182 169.41601562 439.52148438 C168.5678125 440.25753906 167.71960938 440.99359375 166.84570312 441.75195312 C159.02035277 448.45787325 150.75176538 454.40841539 142.26464844 460.24707031 C140.75317541 461.28905251 139.25115907 462.34474077 137.75195312 463.40429688 C132.93768345 466.74802599 127.91475258 469.39907456 122.64257812 471.95507812 C120.43720387 473.02572592 118.24482784 474.12345852 116.06445312 475.24414062 C92.10262569 487.54959376 60.82433597 500.30457924 33.41601562 499.52148438 C32.41601562 498.52148438 32.41601562 498.52148438 32.2929678 495.7122488 C32.29388959 494.44478345 32.29481138 493.1773181 32.29576111 491.8714447 C32.29447947 490.81660656 32.29447947 490.81660656 32.29317194 489.74045855 C32.2915151 487.36657921 32.29704182 484.99276939 32.30249023 482.61889648 C32.30277209 480.92418927 32.30261441 479.22948193 32.30204773 477.53477478 C32.30175968 472.91926811 32.30765754 468.3037872 32.31462169 463.68828654 C32.32085407 458.87028174 32.32145893 454.0522764 32.32264709 449.23426819 C32.32576075 440.1040594 32.33397461 430.97386252 32.34399658 421.84365898 C32.35515665 411.45205762 32.3606679 401.06045569 32.36569202 390.66884983 C32.37615719 369.28638654 32.3945031 347.90393959 32.41601562 326.52148438 C54.85601562 326.19148438 77.29601562 325.86148437 100.41601562 325.52148438 C102.64569319 313.81567716 104.76571869 302.30954898 106.56445312 290.56835938 C107.97955516 281.83897063 109.90941549 273.1997973 111.77758789 264.55834961 C112.68977658 260.21926163 113.55176116 255.87033821 114.41601562 251.52148438 C112.89718529 251.52481529 112.89718529 251.52481529 111.34767151 251.5282135 C101.82663913 251.54844492 92.30561108 251.56345651 82.78456211 251.57329655 C77.88916188 251.57852538 72.99377895 251.58562301 68.09838867 251.59692383 C63.37813585 251.60775272 58.6578997 251.61376121 53.93763542 251.61636162 C52.13262609 251.61821586 50.32761771 251.62183647 48.52261543 251.62721443 C46.00341918 251.63442489 43.48429272 251.63547532 40.96508789 251.63500977 C39.83436607 251.64040268 39.83436607 251.64040268 38.68080139 251.64590454 C33.53006779 251.63553654 33.53006779 251.63553654 32.41601562 250.52148438 C32.30226205 248.10302594 32.25182111 245.71436241 32.24804688 243.29492188 C32.24471848 242.55505035 32.24139008 241.81517883 32.23796082 241.05288696 C32.2328804 239.47406638 32.23055283 237.89523499 32.23071289 236.31640625 C32.22856865 233.95488275 32.21054633 231.59385986 32.19140625 229.23242188 C32.1205992 210.82998609 33.49926844 193.21958644 46.54101562 178.95898438 C59.02016676 166.98217195 77.89539938 166.34026022 94.22851562 166.39648438 C95.89624023 166.39068359 95.89624023 166.39068359 97.59765625 166.38476562 C99.24991211 166.38669922 99.24991211 166.38669922 100.93554688 166.38867188 C101.91628174 166.3897998 102.8970166 166.39092773 103.9074707 166.39208984 C108.75498738 166.57086542 113.58512475 167.08231248 118.41601562 167.52148438 C118.41601562 145.08148438 118.41601562 122.64148438 118.41601562 99.52148438 C113.13601563 98.86148438 107.85601562 98.20148438 102.41601562 97.52148438 C100.91828613 97.31700684 99.42055664 97.1125293 97.87744141 96.90185547 C86.67487145 95.41909611 75.58324346 95.12303464 64.29101562 95.14648438 C62.87518692 95.14680161 62.87518692 95.14680161 61.43075562 95.14712524 C47.09578127 95.17914091 33.34513121 95.85307198 19.41601562 99.52148438 C18.68044434 99.70340332 17.94487305 99.88532227 17.18701172 100.07275391 C-5.78627542 105.86917066 -25.02149968 119.27413997 -37.77148438 139.27148438 C-43.29929509 149.09349834 -47.49440107 159.26670301 -50.39648438 170.14648438 C-50.68857788 171.2359436 -50.68857788 171.2359436 -50.98657227 172.34741211 C-53.87449865 183.87495623 -54.87775597 195.4699018 -54.96289062 207.32226562 C-54.9798851 208.56525925 -54.99687958 209.80825287 -55.01438904 211.08891296 C-55.06693023 215.00388711 -55.10760593 218.91885267 -55.14648438 222.83398438 C-55.18951023 226.79548784 -55.23697981 230.75691437 -55.28929138 234.7183075 C-55.32125786 237.17105464 -55.34814497 239.62387416 -55.36952209 242.07673645 C-55.38975685 243.72061592 -55.38975685 243.72061592 -55.41040039 245.39770508 C-55.41991226 246.36585648 -55.42942413 247.33400787 -55.43922424 248.33149719 C-55.58398438 250.52148438 -55.58398438 250.52148438 -56.58398438 251.52148438 C-58.18009419 251.61482143 -59.78031866 251.6389381 -61.37915039 251.63500977 C-62.41446899 251.63488892 -63.4497876 251.63476807 -64.51647949 251.63464355 C-65.61254517 251.62952759 -66.70861084 251.62441162 -67.83789062 251.61914062 C-69.34023254 251.61763 -69.34023254 251.61763 -70.8729248 251.61608887 C-74.63078956 251.61083867 -78.38863807 251.59687755 -82.14648438 251.58398438 C-90.54085937 251.56335938 -98.93523437 251.54273438 -107.58398438 251.52148438 C-107.58398438 276.27148438 -107.58398438 301.02148438 -107.58398438 326.52148438 C-90.42398438 326.52148438 -73.26398438 326.52148438 -55.58398438 326.52148438 C-55.58398438 381.63148438 -55.58398438 436.74148438 -55.58398438 493.52148438 C-65.73034238 492.39411126 -65.73034238 492.39411126 -70.40429688 490.91992188 C-71.426604 490.59830078 -72.44891113 490.27667969 -73.50219727 489.9453125 C-74.56043701 489.59919922 -75.61867676 489.25308594 -76.70898438 488.89648438 C-77.81556396 488.53748047 -78.92214355 488.17847656 -80.06225586 487.80859375 C-88.61953494 484.96972752 -96.56161039 481.62321735 -104.58398438 477.52148438 C-105.88186511 476.89705732 -107.18140687 476.27607326 -108.48242188 475.65820312 C-121.72672769 469.30999831 -134.04550493 461.74349735 -145.67773438 452.76367188 C-147.76473371 451.15354067 -149.85960306 449.57917485 -151.99023438 448.02929688 C-152.54936523 447.6201001 -153.10849609 447.21090332 -153.68457031 446.78930664 C-155.24814674 445.6467109 -156.81442633 444.50781696 -158.38085938 443.36914062 C-159.47140625 442.45455078 -159.47140625 442.45455078 -160.58398438 441.52148438 C-160.58398438 440.86148437 -160.58398438 440.20148438 -160.58398438 439.52148438 C-161.16277344 439.27011719 -161.7415625 439.01875 -162.33789062 438.75976562 C-164.86682114 437.36555523 -166.51828898 435.78358079 -168.52148438 433.70898438 C-169.21886719 432.99355469 -169.91625 432.278125 -170.63476562 431.54101562 C-171.27800781 430.87457031 -171.92125 430.208125 -172.58398438 429.52148438 C-173.45023437 428.65523438 -174.31648438 427.78898437 -175.20898438 426.89648438 C-175.99273437 426.11273438 -176.77648437 425.32898438 -177.58398438 424.52148438 C-178.39416016 423.74611328 -178.39416016 423.74611328 -179.22070312 422.95507812 C-180.71101151 421.51340452 -182.15148419 420.02061248 -183.58398438 418.52148438 C-183.58398438 417.86148437 -183.58398438 417.20148438 -183.58398438 416.52148438 C-184.24398437 416.52148438 -184.90398437 416.52148438 -185.58398438 416.52148438 C-185.58398438 415.86148437 -185.58398438 415.20148438 -185.58398438 414.52148438 C-186.24398437 414.52148438 -186.90398437 414.52148438 -187.58398438 414.52148438 C-189.17307931 412.68180139 -190.63502698 410.84282852 -192.08398438 408.89648438 C-192.52613281 408.30963867 -192.96828125 407.72279297 -193.42382812 407.11816406 C-194.81843992 405.25835243 -196.20162321 403.39041318 -197.58398438 401.52148438 C-198.00808594 400.95526367 -198.4321875 400.38904297 -198.86914062 399.80566406 C-209.17162425 386.0232663 -217.56972784 371.40329184 -224.59814453 355.70458984 C-225.31392328 354.11952456 -226.04477946 352.54124073 -226.78466797 350.96728516 C-229.8119646 344.47956093 -232.34410261 337.944534 -234.58398438 331.14648438 C-234.92647217 330.1084668 -235.26895996 329.07044922 -235.62182617 328.00097656 C-237.78387465 321.31263247 -239.73933326 314.60265857 -241.39648438 307.77148438 C-241.67008789 306.66087646 -241.67008789 306.66087646 -241.94921875 305.52783203 C-242.56034499 302.86853086 -243.08178765 300.20370472 -243.58398438 297.52148438 C-243.7089328 296.87102142 -243.83388123 296.22055847 -243.96261597 295.55038452 C-246.5344806 281.80089665 -247.08205043 268.28286145 -247.0300293 254.31469727 C-247.02153602 250.85502147 -247.05038263 247.39701363 -247.08203125 243.9375 C-247.14522341 224.07550849 -244.82321367 204.60149626 -239.39648438 185.45898438 C-238.95647095 183.87174561 -238.95647095 183.87174561 -238.50756836 182.25244141 C-233.57095332 164.96209802 -227.12761941 148.34223568 -218.58398438 132.52148438 C-217.89865069 131.23395692 -217.21375617 129.94619562 -216.52929688 128.65820312 C-214.89897015 125.60264493 -213.24822861 122.5587301 -211.58398438 119.52148438 C-210.92398438 119.52148438 -210.26398438 119.52148438 -209.58398438 119.52148438 C-209.43896484 118.69583984 -209.43896484 118.69583984 -209.29101562 117.85351562 C-206.35992031 108.18575927 -197.33650301 99.30087538 -191.02539062 91.57617188 C-188.64277786 88.81329755 -188.64277786 88.81329755 -187.58398438 86.52148438 C-186.92398438 86.52148438 -186.26398438 86.52148438 -185.58398438 86.52148438 C-185.58398438 85.86148438 -185.58398438 85.20148438 -185.58398438 84.52148438 C-184.92398438 84.52148438 -184.26398438 84.52148438 -183.58398438 84.52148438 C-183.33326172 83.94624023 -183.08253906 83.37099609 -182.82421875 82.77832031 C-181.41669611 80.21707242 -179.80228412 78.48091045 -177.74023438 76.41210938 C-176.98871094 75.65800781 -176.2371875 74.90390625 -175.46289062 74.12695312 C-174.67785156 73.34964844 -173.8928125 72.57234375 -173.08398438 71.77148438 C-172.29894531 70.97871094 -171.51390625 70.1859375 -170.70507812 69.36914062 C-169.95355469 68.62019531 -169.20203125 67.87125 -168.42773438 67.09960938 C-167.73873047 66.41286133 -167.04972656 65.72611328 -166.33984375 65.01855469 C-164.58398438 63.52148438 -164.58398438 63.52148438 -162.58398438 63.52148438 C-162.58398438 62.86148438 -162.58398438 62.20148437 -162.58398438 61.52148438 C-161.92398438 61.52148438 -161.26398438 61.52148438 -160.58398438 61.52148438 C-160.58398438 60.86148438 -160.58398438 60.20148437 -160.58398438 59.52148438 C-158.74442248 57.93249403 -156.90488241 56.47078168 -154.95898438 55.02148438 C-154.09394287 54.36696289 -154.09394287 54.36696289 -153.21142578 53.69921875 C-131.70475959 37.52148438 -131.70475959 37.52148438 -127.58398438 37.52148438 C-127.58398438 36.86148438 -127.58398438 36.20148437 -127.58398438 35.52148438 C-106.34715131 24.03924171 -85.279477 14.32894229 -61.95898438 7.83398438 C-61.00258057 7.56062256 -60.04617676 7.28726074 -59.06079102 7.00561523 C-39.62521062 1.79625664 -20.0760044 -0.14939213 0 0 Z " fill="#0865FE" transform="translate(246.583984375,-0.521484375)"/>
<path d="M0 0 C0.33 0 0.66 0 1 0 C1.05428973 2.22889496 1.09292338 4.45817471 1.125 6.6875 C1.14820313 7.92886719 1.17140625 9.17023438 1.1953125 10.44921875 C0.99967714 14.00586967 0.62729956 17.37270044 -2 20 C-24.11 20 -46.22 20 -69 20 C-69 76.1 -69 132.2 -69 190 C-67.02 190 -65.04 190 -63 190 C-63 189.34 -63 188.68 -63 188 C-57.06 187.01 -51.12 186.02 -45 185 C-45 184.67 -45 184.34 -45 184 C-42.03 184 -39.06 184 -36 184 C-36 183.34 -36 182.68 -36 182 C-32.37 182 -28.74 182 -25 182 C-27.91303942 183.94202628 -29.78023875 184.60294929 -33.12109375 185.4375 C-34.14009766 185.69273437 -35.15910156 185.94796875 -36.20898438 186.2109375 C-37.27439453 186.47132813 -38.33980469 186.73171875 -39.4375 187 C-40.46810547 187.26039063 -41.49871094 187.52078125 -42.56054688 187.7890625 C-61.06943434 192.37287703 -61.06943434 192.37287703 -70 192 C-71 191 -71 191 -71.12304783 188.19076443 C-71.12212604 186.92329907 -71.12120424 185.65583372 -71.12025452 184.34996033 C-71.12110894 183.6467349 -71.12196337 182.94350947 -71.12284368 182.21897417 C-71.12450053 179.84509484 -71.1189738 177.47128502 -71.11352539 175.09741211 C-71.11324354 173.40270489 -71.11340122 171.70799755 -71.1139679 170.01329041 C-71.11425594 165.39778374 -71.10835809 160.78230283 -71.10139394 156.16680217 C-71.09516156 151.34879736 -71.09455669 146.53079203 -71.09336853 141.71278381 C-71.09025487 132.58257502 -71.08204102 123.45237814 -71.07201904 114.32217461 C-71.06085898 103.93057324 -71.05534772 93.53897132 -71.05032361 83.14736545 C-71.03985843 61.76490217 -71.02151252 40.38245522 -71 19 C-48.56 18.67 -26.12 18.34 -3 18 C-2.01 12.06 -1.02 6.12 0 0 Z " fill="#73B4E8" transform="translate(350,307)"/>
<path d="M0 0 C16.83 0 33.66 0 51 0 C51 55.11 51 110.22 51 167 C45.03020234 166.33668915 40.52856179 165.76443461 35 164 C35 163.67 35 163.34 35 163 C40.42372238 162.77862358 43.52413817 163.43546805 49 165 C49 110.88 49 56.76 49 1 C32.83 1 16.66 1 0 1 C0 0.67 0 0.34 0 0 Z " fill="#789DE2" transform="translate(140,326)"/>
<path d="M0 0 C0.33 0 0.66 0 1 0 C1.02312883 7.41459942 1.04091785 14.82919111 1.05181217 22.24381924 C1.05703982 25.68640348 1.06413531 29.12896312 1.07543945 32.5715332 C1.08834235 36.52555043 1.09322918 40.47955756 1.09765625 44.43359375 C1.10281754 45.67523788 1.10797882 46.91688202 1.11329651 48.19615173 C1.11337204 49.33725906 1.11344757 50.47836639 1.11352539 51.65405273 C1.115746 52.664431 1.11796661 53.67480927 1.12025452 54.71580505 C1 57 1 57 0 58 C-1.59610982 58.09333705 -3.19633428 58.11745372 -4.79516602 58.11352539 C-5.83048462 58.11340454 -6.86580322 58.11328369 -7.93249512 58.11315918 C-9.57659363 58.10548523 -9.57659363 58.10548523 -11.25390625 58.09765625 C-12.25546753 58.09664917 -13.25702881 58.09564209 -14.28894043 58.09460449 C-18.04680519 58.08935429 -21.80465369 58.07539317 -25.5625 58.0625 C-33.956875 58.041875 -42.35125 58.02125 -51 58 C-51 82.75 -51 107.5 -51 133 C-51.66 133 -52.32 133 -53 133 C-53.02312428 123.10810624 -53.04091552 113.21621886 -53.05181217 103.32430363 C-53.05704082 98.7315736 -53.06413812 94.138862 -53.07543945 89.54614258 C-53.086269 85.11766312 -53.09227698 80.68920144 -53.09487724 76.26070976 C-53.09673137 74.56734372 -53.10035175 72.87397871 -53.10573006 71.18062019 C-53.1129414 68.81708768 -53.1139909 66.45362955 -53.11352539 64.09008789 C-53.11712067 63.38302704 -53.12071594 62.67596619 -53.12442017 61.94747925 C-53.11405216 57.11405216 -53.11405216 57.11405216 -52 56 C-50.40389018 55.90666295 -48.80366572 55.88254628 -47.20483398 55.88647461 C-46.18385117 55.88655014 -45.16286835 55.88662567 -44.11094666 55.88670349 C-43.0005452 55.89186478 -41.89014374 55.89702606 -40.74609375 55.90234375 C-39.05021873 55.90446617 -39.05021873 55.90446617 -37.32008362 55.90663147 C-33.69252935 55.91224981 -30.06503576 55.92480542 -26.4375 55.9375 C-23.98502693 55.94251264 -21.5325529 55.94707595 -19.08007812 55.95117188 C-13.05336455 55.9622252 -7.02668661 55.97898116 -1 56 C-1.00523682 54.69442139 -1.01047363 53.38884277 -1.01586914 52.04370117 C-1.03410122 47.15519915 -1.04549797 42.26670008 -1.05493164 37.37817383 C-1.05993051 35.27074679 -1.06673181 33.16332318 -1.07543945 31.0559082 C-1.08770131 28.00991976 -1.09327292 24.96397755 -1.09765625 21.91796875 C-1.10281754 20.99042282 -1.10797882 20.06287689 -1.11329651 19.10722351 C-1.11383508 12.6890362 -0.67938166 6.38125752 0 0 Z " fill="#5187DD" transform="translate(190,193)"/>
<path d="M0 0 C2.96988952 0.31476995 2.96988952 0.31476995 6.76953125 0.25390625 C6.76953125 0.91390625 6.76953125 1.57390625 6.76953125 2.25390625 C9.24453125 2.74890625 9.24453125 2.74890625 11.76953125 3.25390625 C11.76953125 26.35390625 11.76953125 49.45390625 11.76953125 73.25390625 C-1.43046875 73.25390625 -14.63046875 73.25390625 -28.23046875 73.25390625 C-27.73546875 72.26390625 -27.73546875 72.26390625 -27.23046875 71.25390625 C-23.12631758 71.22446471 -19.02219419 71.20696098 -14.91796875 71.19140625 C-13.77005859 71.18302734 -12.62214844 71.17464844 -11.43945312 71.16601562 C-10.30185547 71.16279297 -9.16425781 71.15957031 -7.9921875 71.15625 C-6.96053467 71.15101318 -5.92888184 71.14577637 -4.8659668 71.14038086 C0.0242487 71.29308721 4.89702495 71.81095113 9.76953125 72.25390625 C9.76953125 49.81390625 9.76953125 27.37390625 9.76953125 4.25390625 C-3.21875183 2.60900831 -3.21875183 2.60900831 -16.23046875 1.25390625 C-16.23046875 0.92390625 -16.23046875 0.59390625 -16.23046875 0.25390625 C-10.66067244 -0.88537027 -5.64537929 -0.57250958 0 0 Z " fill="#70A2E7" transform="translate(355.23046875,94.74609375)"/>
<path d="M0 0 C1.19947266 -0.01224609 2.39894531 -0.02449219 3.63476562 -0.03710938 C11.7476817 -0.05024416 19.46054006 0.71615145 27.4375 2.1875 C27.4375 2.5175 27.4375 2.8475 27.4375 3.1875 C19.74323156 4.00466957 12.15918767 4.25646413 4.4296875 4.1796875 C3.08321136 4.16787445 3.08321136 4.16787445 1.70953369 4.15582275 C-2.01774412 4.11963081 -5.74473526 4.07820723 -9.47167969 4.01611328 C-20.39544647 3.84476763 -30.8107194 4.15753724 -41.56838989 6.21456909 C-45.2659679 6.91316964 -47.96062566 7.27923579 -51.5625 6.1875 C-50.1084375 5.7853125 -50.1084375 5.7853125 -48.625 5.375 C-47.1090625 4.7871875 -47.1090625 4.7871875 -45.5625 4.1875 C-45.2325 3.1975 -44.9025 2.2075 -44.5625 1.1875 C-43.9025 1.5175 -43.2425 1.8475 -42.5625 2.1875 C-40.89061444 2.21552246 -39.21733794 2.17599489 -37.546875 2.1015625 C-36.04060547 2.03582031 -36.04060547 2.03582031 -34.50390625 1.96875 C-33.45074219 1.9171875 -32.39757812 1.865625 -31.3125 1.8125 C-30.27480469 1.76867187 -29.23710937 1.72484375 -28.16796875 1.6796875 C-22.36316793 1.42160609 -22.36316793 1.42160609 -16.60668945 0.67602539 C-11.10637594 -0.20665384 -5.55898559 0.00292117 0 0 Z " fill="#276DDE" transform="translate(317.5625,90.8125)"/>
<path d="M0 0 C2.87941713 4.31912569 3.70065145 8.93240686 4.9375 13.9375 C5.20256348 15.00911377 5.46762695 16.08072754 5.74072266 17.18481445 C12.71276741 46.1421546 12.71276741 46.1421546 11 60 C10.34 60.99 9.68 61.98 9 63 C8.88406494 61.88963379 8.76812988 60.77926758 8.64868164 59.63525391 C8.21835112 55.52367034 7.78292776 51.41263949 7.34594727 47.30175781 C7.15737718 45.52098056 6.97019673 43.7400556 6.78442383 41.95898438 C6.51747225 39.40194418 6.2455609 36.84547331 5.97265625 34.2890625 C5.89032242 33.49005524 5.80798859 32.69104797 5.72315979 31.86782837 C5.34960093 27.80518934 5.34960093 27.80518934 4 24 C3.960008 22.00039988 3.95653201 19.99952758 4 18 C3.34 18 2.68 18 2 18 C1.46969932 15.56421213 0.95047688 13.12694025 0.4375 10.6875 C0.21030273 9.65206055 0.21030273 9.65206055 -0.02148438 8.59570312 C-0.71761569 5.24455934 -1.10155309 3.30465928 0 0 Z " fill="#4081E5" transform="translate(489,175)"/>
<path d="M0 0 C0.33 0 0.66 0 1 0 C2.0249986 19.36108459 -2.23127879 38.33096377 -7 57 C-7.33 57 -7.66 57 -8 57 C-8.02689216 55.52093108 -8.04634621 54.04172517 -8.0625 52.5625 C-8.07990234 51.32693359 -8.07990234 51.32693359 -8.09765625 50.06640625 C-8 48 -8 48 -7 47 C-6.92755947 44.98035801 -6.91622812 42.95832876 -6.9375 40.9375 C-6.94652344 39.83277344 -6.95554687 38.72804688 -6.96484375 37.58984375 C-6.97644531 36.73519531 -6.98804688 35.88054687 -7 35 C-6.01 34.505 -6.01 34.505 -5 34 C-4.5720382 32.13690908 -4.5720382 32.13690908 -4.4375 30 C-4.09589041 26.09589041 -4.09589041 26.09589041 -3 25 C-2.7610668 21.32118718 -2.60482785 17.64896506 -2.48242188 13.96484375 C-2.26596417 8.99040056 -1.56648257 4.73115789 0 0 Z " fill="#377AE1" transform="translate(499,262)"/>
<path d="M0 0 C0.33 0 0.66 0 1 0 C1 4.29 1 8.58 1 13 C2.98 13 4.96 13 7 13 C7 12.34 7 11.68 7 11 C12.94 10.01 18.88 9.02 25 8 C25 7.67 25 7.34 25 7 C27.97 7 30.94 7 34 7 C34 6.34 34 5.68 34 5 C37.63 5 41.26 5 45 5 C42.08696058 6.94202628 40.21976125 7.60294929 36.87890625 8.4375 C35.85990234 8.69273437 34.84089844 8.94796875 33.79101562 9.2109375 C32.72560547 9.47132813 31.66019531 9.73171875 30.5625 10 C29.53189453 10.26039063 28.50128906 10.52078125 27.43945312 10.7890625 C18.31891846 13.04780654 9.42203523 15 0 15 C0 10.05 0 5.1 0 0 Z " fill="#3B7FE4" transform="translate(280,484)"/>
<path d="M0 0 C0.82693359 0.00451172 1.65386719 0.00902344 2.50585938 0.01367188 C4.52477146 0.02534189 6.54364574 0.04327282 8.5625 0.0625 C8.2325 0.7225 7.9025 1.3825 7.5625 2.0625 C5.3828125 2.66015625 5.3828125 2.66015625 2.6875 3.125 C-0.1483844 3.62520702 -2.69817849 4.14939283 -5.4375 5.0625 C-6.4275 4.7325 -7.4175 4.4025 -8.4375 4.0625 C-13.78551913 3.72294323 -18.02858625 4.11390435 -23.1875 5.5625 C-29.65695475 7.33826529 -35.77085158 7.35282179 -42.4375 7.0625 C-39.46679447 5.41859231 -36.81804611 4.61496088 -33.48046875 4.02734375 C-32.05831055 3.77307617 -32.05831055 3.77307617 -30.60742188 3.51367188 C-29.62322266 3.34416016 -28.63902344 3.17464844 -27.625 3 C-26.16610352 2.73993164 -26.16610352 2.73993164 -24.67773438 2.47460938 C-21.93321083 1.98962586 -19.18627335 1.52269948 -16.4375 1.0625 C-14.65085938 0.75699219 -14.65085938 0.75699219 -12.828125 0.4453125 C-8.53462931 -0.03943701 -4.31599344 -0.04521186 0 0 Z " fill="#2A77E3" transform="translate(232.4375,-0.0625)"/>
<path d="M0 0 C-3 2 -3 2 -6 2 C-6.33 2.99 -6.66 3.98 -7 5 C-8.98 5 -10.96 5 -13 5 C-13.33 5.66 -13.66 6.32 -14 7 C-14.66 6.67 -15.32 6.34 -16 6 C-16.1546875 6.9590625 -16.1546875 6.9590625 -16.3125 7.9375 C-16.539375 8.618125 -16.76625 9.29875 -17 10 C-17.99 10.33 -18.98 10.66 -20 11 C-20 11.66 -20 12.32 -20 13 C-20.66 13 -21.32 13 -22 13 C-22 14.65 -22 16.3 -22 18 C-23.65 18.66 -25.3 19.32 -27 20 C-27 21.32 -27 22.64 -27 24 C-27.99 24 -28.98 24 -30 24 C-27.53794554 15.3828094 -22.18588598 8.06582013 -14.4296875 3.48046875 C-4.67854283 -1.45196157 -4.67854283 -1.45196157 0 0 Z " fill="#4A86E3" transform="translate(314,170)"/>
<path d="M0 0 C0.33 0 0.66 0 1 0 C1.05428973 2.22889496 1.09292338 4.45817471 1.125 6.6875 C1.14820313 7.92886719 1.17140625 9.17023438 1.1953125 10.44921875 C0.99967714 14.00586967 0.62729956 17.37270044 -2 20 C-4.11681317 20.0942174 -6.23680758 20.11742761 -8.35571289 20.11352539 C-9.01910172 20.11367142 -9.68249054 20.11381744 -10.36598206 20.1139679 C-12.56823956 20.11326881 -14.77041345 20.10547665 -16.97265625 20.09765625 C-18.49580336 20.09579206 -20.01895107 20.09436816 -21.542099 20.09336853 C-25.55837651 20.08954346 -29.57461808 20.07971328 -33.59088135 20.06866455 C-37.68623366 20.05845019 -41.78159176 20.05387086 -45.87695312 20.04882812 C-53.91798528 20.038091 -61.95898817 20.02101472 -70 20 C-70 19.67 -70 19.34 -70 19 C-47.89 18.67 -25.78 18.34 -3 18 C-2.01 12.06 -1.02 6.12 0 0 Z " fill="#487DDF" transform="translate(350,307)"/>
<path d="M0 0 C0.33 0 0.66 0 1 0 C2.37064374 8.6363863 3.28719018 17.09204766 3.65625 25.8203125 C3.80175913 28.90164963 3.80175913 28.90164963 5.0234375 31.0390625 C6.40668936 33.81663223 6.19190311 36.17245711 6.125 39.25 C6.10695313 40.32765625 6.08890625 41.4053125 6.0703125 42.515625 C6.03550781 43.74539063 6.03550781 43.74539063 6 45 C4.35609231 42.02929447 3.55246088 39.38054611 2.96484375 36.04296875 C2.79533203 35.09486328 2.62582031 34.14675781 2.45117188 33.16992188 C2.28166016 32.18572266 2.11214844 31.20152344 1.9375 30.1875 C1.76412109 29.21490234 1.59074219 28.24230469 1.41210938 27.24023438 C-1.14458125 12.77191234 -1.14458125 12.77191234 -1.125 7.25 C-1.12757812 6.51265625 -1.13015625 5.7753125 -1.1328125 5.015625 C-1 3 -1 3 0 0 Z " fill="#4984E6" transform="translate(1,265)"/>
<path d="M0 0 C0.33 0.66 0.66 1.32 1 2 C0.22265625 3.9453125 0.22265625 3.9453125 -0.9375 6.125 C-1.31777344 6.84945312 -1.69804688 7.57390625 -2.08984375 8.3203125 C-2.39019531 8.87460938 -2.69054688 9.42890625 -3 10 C-3.66 10 -4.32 10 -5 10 C-5 10.99 -5 11.98 -5 13 C-4.34 13.33 -3.68 13.66 -3 14 C-3.33 14.66 -3.66 15.32 -4 16 C-4.99 16.33 -5.98 16.66 -7 17 C-7 17.66 -7 18.32 -7 19 C-8.6222454 20.70993434 -10.29413425 22.37347684 -12 24 C-12.556875 24.598125 -13.11375 25.19625 -13.6875 25.8125 C-15 27 -15 27 -17 27 C-16.34 25.02 -15.68 23.04 -15 21 C-14.34 21 -13.68 21 -13 21 C-12.91363281 20.46246094 -12.82726563 19.92492187 -12.73828125 19.37109375 C-11.74624736 16.18503782 -10.06113487 13.81907227 -8.1875 11.0625 C-7.50042969 10.04285156 -6.81335937 9.02320312 -6.10546875 7.97265625 C-4.16146775 5.22797209 -2.13135841 2.60073622 0 0 Z " fill="#4082E9" transform="translate(50,98)"/>
<path d="M0 0 C0.33 1.32 0.66 2.64 1 4 C-0.32 4 -1.64 4 -3 4 C-2.896875 4.763125 -2.79375 5.52625 -2.6875 6.3125 C-2.790625 7.199375 -2.89375 8.08625 -3 9 C-4.65071396 10.02611949 -6.31970006 11.02308143 -8 12 C-8.495 12.99 -8.99 13.98 -9.5 15 C-11.24095443 18.48190887 -12.45685881 19.48151092 -16 21 C-18.8125 21.1875 -18.8125 21.1875 -21 21 C-16.33477149 15.37780154 -11.48740595 9.83989204 -6 5 C-5.34 5 -4.68 5 -4 5 C-4 4.34 -4 3.68 -4 3 C-3.34 3 -2.68 3 -2 3 C-2 2.34 -2 1.68 -2 1 C-1.34 0.67 -0.68 0.34 0 0 Z " fill="#387BE3" transform="translate(88,58)"/>
<path d="M0 0 C0.33 0 0.66 0 1 0 C1 2.64 1 5.28 1 8 C0.34 8 -0.32 8 -1 8 C-1 8.99 -1 9.98 -1 11 C-1.66 11 -2.32 11 -3 11 C-2.67 12.98 -2.34 14.96 -2 17 C-2.99 17.33 -3.98 17.66 -5 18 C-5.1546875 18.9590625 -5.1546875 18.9590625 -5.3125 19.9375 C-5.90107832 22.55934889 -6.54835537 25.11266485 -7.3125 27.6875 C-7.53550781 28.45449219 -7.75851563 29.22148437 -7.98828125 30.01171875 C-9.24727113 32.48594982 -10.45640789 33.01927479 -13 34 C-10.18535852 22.12418814 -5.71880597 10.77774971 0 0 Z " fill="#4686E5" transform="translate(24,140)"/>
<path d="M0 0 C2 1.375 2 1.375 4 3 C4 3.66 4 4.32 4 5 C4.66 5 5.32 5 6 5 C6 5.66 6 6.32 6 7 C6.66 7 7.32 7 8 7 C9.64910561 8.92345408 11.17661902 10.84688303 12.6875 12.875 C13.13013184 13.45983154 13.57276367 14.04466309 14.02880859 14.6472168 C17.81272633 19.67579029 21.45516471 24.80012571 25 30 C24.34 30.66 23.68 31.32 23 32 C20.875 31.625 20.875 31.625 19 31 C19 28.69 19 26.38 19 24 C18.34 24 17.68 24 17 24 C17 23.34 17 22.68 17 22 C16.01 21.67 15.02 21.34 14 21 C14 19.68 14 18.36 14 17 C12.68 16.67 11.36 16.34 10 16 C10 15.01 10 14.02 10 13 C9.34 13 8.68 13 8 13 C7.67 11.35 7.34 9.7 7 8 C5.35 7.67 3.7 7.34 2 7 C1.34 4.69 0.68 2.38 0 0 Z " fill="#4280E3" transform="translate(433,79)"/>
<path d="M0 0 C0.66 0.33 1.32 0.66 2 1 C3.54227856 1.08991092 5.08840895 1.11756961 6.63330078 1.11352539 C7.59414581 1.11344986 8.55499084 1.11337433 9.54495239 1.11329651 C11.10438065 1.10555458 11.10438065 1.10555458 12.6953125 1.09765625 C13.75789276 1.0962413 14.82047302 1.09482635 15.91525269 1.09336853 C19.31853009 1.08775834 22.72174238 1.07520409 26.125 1.0625 C28.42838447 1.05748631 30.73176997 1.05292318 33.03515625 1.04882812 C38.69012649 1.0377856 44.34505859 1.02103752 50 1 C50 1.33 50 1.66 50 2 C49.06953857 2.01458252 48.13907715 2.02916504 47.18041992 2.04418945 C23.64161944 2.35266398 23.64161944 2.35266398 0.3515625 5.4765625 C-2.62170311 5.94091867 -4.23808356 6.06227555 -7 5 C-5.5459375 4.5978125 -5.5459375 4.5978125 -4.0625 4.1875 C-3.051875 3.795625 -2.04125 3.40375 -1 3 C-0.67 2.01 -0.34 1.02 0 0 Z " fill="#72A9EA" transform="translate(273,92)"/>
<path d="M0 0 C-24.38040346 12 -24.38040346 12 -33 12 C-32.67 11.01 -32.34 10.02 -32 9 C-31.34 9 -30.68 9 -30 9 C-29.67 8.01 -29.34 7.02 -29 6 C-25.37 6 -21.74 6 -18 6 C-18 5.34 -18 4.68 -18 4 C-16.02 3.67 -14.04 3.34 -12 3 C-12 2.67 -12 2.34 -12 2 C-10.35 2 -8.7 2 -7 2 C-7 1.34 -7 0.68 -7 0 C-3.98968256 -0.93423645 -3.13349732 -1.04449911 0 0 Z " fill="#2F76E3" transform="translate(358,477)"/>
<path d="M0 0 C1.32 0.33 2.64 0.66 4 1 C-0.34059295 9.8794871 -4.69654931 18.64304739 -10 27 C-11.125 23.25 -11.125 23.25 -10 21 C-9.34 21 -8.68 21 -8 21 C-7.67 17.37 -7.34 13.74 -7 10 C-5.68 10.33 -4.36 10.66 -3 11 C-3 9.68 -3 8.36 -3 7 C-2.01 7 -1.02 7 0 7 C0 4.69 0 2.38 0 0 Z " fill="#3E80E6" transform="translate(473,357)"/>
<path d="M0 0 C0.33 0 0.66 0 1 0 C1.02688151 1.64574566 1.04634123 3.29161413 1.0625 4.9375 C1.07410156 5.85402344 1.08570313 6.77054688 1.09765625 7.71484375 C1 10 1 10 0 11 C-0.165 12.155 -0.33 13.31 -0.5 14.5 C-1 18 -1 18 -2 19 C-2.103125 20.0725 -2.20625 21.145 -2.3125 22.25 C-3.05903089 26.32198667 -4.20771663 28.02756932 -7 31 C-5.58529049 20.42135126 -2.81615177 10.27572937 0 0 Z " fill="#5287E2" transform="translate(10,175)"/>
<path d="M0 0 C1.38120529 0.03014442 1.38120529 0.03014442 2.79031372 0.06089783 C3.786185 0.08793289 4.78205627 0.11496796 5.80810547 0.14282227 C7.33538773 0.17823875 7.33538773 0.17823875 8.89352417 0.21437073 C12.15425202 0.29110973 15.41474846 0.37509007 18.67529297 0.45922852 C20.88231279 0.51243895 23.089344 0.5651794 25.29638672 0.61743164 C30.71449949 0.74673867 36.1324396 0.88199574 41.55029297 1.02172852 C41.55029297 1.35172852 41.55029297 1.68172852 41.55029297 2.02172852 C40.23834961 2.04678467 38.92640625 2.07184082 37.57470703 2.09765625 C32.7067693 2.19183523 27.83897076 2.29203045 22.97119141 2.39404297 C20.8644537 2.4373521 18.7576818 2.47903005 16.65087891 2.51904297 C13.62245378 2.57684279 10.59420012 2.64050948 7.56591797 2.70532227 C6.62411682 2.72203476 5.68231567 2.73874725 4.7119751 2.75596619 C3.83136414 2.77591141 2.95075317 2.79585663 2.04345703 2.81640625 C1.2706842 2.83195053 0.49791138 2.84749481 -0.29827881 2.86351013 C-2.45222452 3.02191365 -4.37534141 3.43391058 -6.44970703 4.02172852 C-6.44970703 3.03172852 -6.44970703 2.04172852 -6.44970703 1.02172852 C-4.0530002 -0.1766249 -2.6707228 -0.06567351 0 0 Z " fill="#1363EC" transform="translate(324.44970703125,166.978271484375)"/>
<path d="M0 0 C6.32868862 -0.17743987 12.25766516 0.49287912 18.5 1.5 C19.87671875 1.71462891 19.87671875 1.71462891 21.28125 1.93359375 C23.52174119 2.2836705 25.76120947 2.6392349 28 3 C28 3.33 28 3.66 28 4 C21.3950033 4.95309236 15.54445058 4.88772812 8.9375 4.0625 C8.07189453 3.96259766 7.20628906 3.86269531 6.31445312 3.75976562 C4.20858045 3.51543786 2.10411836 3.25900134 0 3 C0 2.01 0 1.02 0 0 Z " fill="#528CE1" transform="translate(269,0)"/>
<path d="M0 0 C2.71322303 4.06983454 3.51735889 8.22693195 4.6875 12.9375 C5.04424805 14.2977832 5.04424805 14.2977832 5.40820312 15.68554688 C5.62798828 16.56146484 5.84777344 17.43738281 6.07421875 18.33984375 C6.27619873 19.13769287 6.47817871 19.93554199 6.6862793 20.75756836 C7.02147491 23.15349966 6.7450949 24.71775964 6 27 C3.70986347 23.5647952 3.82157027 22.014669 4 18 C3.34 18 2.68 18 2 18 C1.46969932 15.56421213 0.95047688 13.12694025 0.4375 10.6875 C0.21030273 9.65206055 0.21030273 9.65206055 -0.02148438 8.59570312 C-0.71761569 5.24455934 -1.10155309 3.30465928 0 0 Z " fill="#4383E4" transform="translate(489,175)"/>
<path d="M0 0 C7.36988707 1.966369 14.13045202 4.69582578 21 8 C17.34811918 9.07174763 14.73567172 8.76411467 11 8 C11 8.66 11 9.32 11 10 C9 9 9 9 8 6 C6.1346755 4.98245132 6.1346755 4.98245132 3.9375 4.3125 C3.20402344 4.06113281 2.47054688 3.80976563 1.71484375 3.55078125 C1.14894531 3.36902344 0.58304687 3.18726563 0 3 C0 2.01 0 1.02 0 0 Z " fill="#4483E6" transform="translate(332,13)"/>
<path d="M0 0 C1.8203125 0.26953125 1.8203125 0.26953125 4.125 0.8125 C4.93066406 1.00199219 5.73632812 1.19148437 6.56640625 1.38671875 C9.73555845 2.18536545 12.86781825 3.06700969 16 4 C14.4375 5.5625 14.4375 5.5625 12 7 C8.5625 6.75 8.5625 6.75 5 6 C4.030625 5.814375 3.06125 5.62875 2.0625 5.4375 C1.0415625 5.2209375 1.0415625 5.2209375 0 5 C-0.5625 3.0625 -0.5625 3.0625 -1 1 C-0.67 0.67 -0.34 0.34 0 0 Z " fill="#206EEE" transform="translate(315,8)"/>
<path d="M0 0 C0.49371094 0.38671875 0.98742187 0.7734375 1.49609375 1.171875 C1.16609375 1.831875 0.83609375 2.491875 0.49609375 3.171875 C-1.46426526 3.40445997 -3.42553516 3.63183141 -5.390625 3.8203125 C-7.74333973 4.09945308 -7.74333973 4.09945308 -10.50390625 5.734375 C-14.45219645 7.62626405 -17.16338903 7.39638451 -21.50390625 7.171875 C-18.03548483 4.85959405 -14.43019067 3.41619449 -10.56640625 1.921875 C-9.85033203 1.62796875 -9.13425781 1.3340625 -8.39648438 1.03125 C-3.07974949 -1.0185755 -3.07974949 -1.0185755 0 0 Z " fill="#3E80E3" transform="translate(174.50390625,11.828125)"/>
<path d="M0 0 C0.33 0 0.66 0 1 0 C1.3690205 16.70842825 1.3690205 16.70842825 -1 25 C-1.33 25 -1.66 25 -2 25 C-2.05437005 22.14557247 -2.09384974 19.29219924 -2.125 16.4375 C-2.14175781 15.63763672 -2.15851563 14.83777344 -2.17578125 14.01367188 C-2.21723982 8.93499665 -1.64056075 4.81188094 0 0 Z " fill="#357EE1" transform="translate(499,262)"/>
<path d="M0 0 C0.99 0.33 1.98 0.66 3 1 C0.7169864 3.50802429 -1.5777855 6.00498229 -3.875 8.5 C-4.85146484 9.57314453 -4.85146484 9.57314453 -5.84765625 10.66796875 C-6.47285156 11.34472656 -7.09804688 12.02148438 -7.7421875 12.71875 C-8.3182373 13.34716797 -8.89428711 13.97558594 -9.48779297 14.62304688 C-11 16 -11 16 -13 16 C-13 14.35 -13 12.7 -13 11 C-11.35 11 -9.7 11 -8 11 C-8 9.35 -8 7.7 -8 6 C-6.35 5.67 -4.7 5.34 -3 5 C-2.67 4.01 -2.34 3.02 -2 2 C-1.34 2 -0.68 2 0 2 C0 1.34 0 0.68 0 0 Z " fill="#477EDF" transform="translate(435,416)"/>
<path d="M0 0 C0.99 0.495 0.99 0.495 2 1 C2.85800217 3.71775556 3.47281172 6.46363416 4.12109375 9.23828125 C4.82837303 12.02670074 4.82837303 12.02670074 6.5859375 13.99609375 C8.48298899 16.68445677 8.3035636 18.50021912 8.1875 21.75 C8.16042969 22.73484375 8.13335937 23.7196875 8.10546875 24.734375 C8.07066406 25.48203125 8.03585937 26.2296875 8 27 C5.29658696 22.94488044 4.24945267 18.70867614 2.875 14.0625 C2.45927734 12.7022168 2.45927734 12.7022168 2.03515625 11.31445312 C1.64263672 10.00057617 1.64263672 10.00057617 1.2421875 8.66015625 C1.0035498 7.86230713 0.76491211 7.06445801 0.51904297 6.24243164 C0 4 0 4 0 0 Z " fill="#4884E4" transform="translate(7,310)"/>
<path d="M0 0 C0 1.32 0 2.64 0 4 C-1.65 4 -3.3 4 -5 4 C-5 4.66 -5 5.32 -5 6 C-5.99 6 -6.98 6 -8 6 C-8 6.66 -8 7.32 -8 8 C-10.31 8.33 -12.62 8.66 -15 9 C-15.33 9.99 -15.66 10.98 -16 12 C-17.32 11.67 -18.64 11.34 -20 11 C-16.375 8 -16.375 8 -13 8 C-13 7.34 -13 6.68 -13 6 C-11.21118264 4.99491199 -9.41885304 3.99607264 -7.625 3 C-6.62726563 2.443125 -5.62953125 1.88625 -4.6015625 1.3125 C-2 0 -2 0 0 0 Z " fill="#5791E5" transform="translate(132,29)"/>
<path d="M0 0 C0.66 0 1.32 0 2 0 C0.49958009 7.91130499 -1.82586893 15.59369417 -5 23 C-5.66 23.33 -6.32 23.66 -7 24 C-6.67 21.69 -6.34 19.38 -6 17 C-5.34 17 -4.68 17 -4 17 C-4.04640625 16.443125 -4.0928125 15.88625 -4.140625 15.3125 C-4.43676823 9.05118604 -3.14498342 5.40544025 0 0 Z " fill="#4783DF" transform="translate(487,325)"/>
<path d="M0 0 C4.78127179 0.58308193 8.61280615 2.05013606 13 4 C14.32276056 4.37308631 15.65232077 4.73046415 17 5 C17.33 4.34 17.66 3.68 18 3 C19.20628008 5.33214148 20.1654738 7.49642139 21 10 C13.55620912 7.76686274 6.88023305 4.59727921 0 1 C0 0.67 0 0.34 0 0 Z " fill="#4284E7" transform="translate(132,471)"/>
<path d="M0 0 C-1.31225809 3.93677426 -3.1961394 4.8271782 -6.5625 7.1875 C-7.57441406 7.90292969 -8.58632813 8.61835938 -9.62890625 9.35546875 C-10.41136719 9.89816406 -11.19382812 10.44085938 -12 11 C-12.5534764 8.92446352 -13 7.15634036 -13 5 C-11.02 5 -9.04 5 -7 5 C-7 4.34 -7 3.68 -7 3 C-7.66 2.67 -8.32 2.34 -9 2 C-5.5647952 -0.29013653 -4.014669 -0.17842973 0 0 Z " fill="#2D78E8" transform="translate(409,443)"/>
<path d="M0 0 C0.99 0.33 1.98 0.66 3 1 C3 2.32 3 3.64 3 5 C3.99 5 4.98 5 6 5 C7.25664978 7.90600261 8 9.79604584 8 13 C8.66 13 9.32 13 10 13 C10.66 14.98 11.32 16.96 12 19 C12.66 19 13.32 19 14 19 C13.67 20.32 13.34 21.64 13 23 C11.58104292 20.81395715 10.16480208 18.62622986 8.75 16.4375 C8.35425781 15.82841797 7.95851563 15.21933594 7.55078125 14.59179688 C0 2.8942751 0 2.8942751 0 0 Z " fill="#659AE7" transform="translate(29,368)"/>
<path d="M0 0 C0.33 0.66 0.66 1.32 1 2 C-0.8125 5 -0.8125 5 -3 8 C-3.99 8 -4.98 8 -6 8 C-7.01111093 11.04913228 -7.01111093 11.04913228 -6 14 C-11.625 18 -11.625 18 -15 18 C-13.71632558 16.16106176 -12.42283239 14.32897375 -11.125 12.5 C-10.04605469 10.96859375 -10.04605469 10.96859375 -8.9453125 9.40625 C-8.30335937 8.6121875 -7.66140625 7.818125 -7 7 C-6.34 7 -5.68 7 -5 7 C-5 6.34 -5 5.68 -5 5 C-4.34 5 -3.68 5 -3 5 C-2.690625 4.360625 -2.38125 3.72125 -2.0625 3.0625 C-1 1 -1 1 0 0 Z " fill="#5C93E1" transform="translate(66,79)"/>
<path d="M0 0 C0.33 0.99 0.66 1.98 1 3 C1.33 3.66 1.66 4.32 2 5 C2.99 5.33 3.98 5.66 5 6 C5.33 7.98 5.66 9.96 6 12 C5.01 12 4.02 12 3 12 C1.17578125 10.1015625 1.17578125 10.1015625 -0.6875 7.625 C-1.31011719 6.81289063 -1.93273438 6.00078125 -2.57421875 5.1640625 C-4 3 -4 3 -4 1 C-2.68 0.67 -1.36 0.34 0 0 Z " fill="#3177E6" transform="translate(47,390)"/>
<path d="M0 0 C-6.96105617 6.12572943 -15.26411154 5.23646014 -24 5 C-20.39561201 2.89056173 -16.61440413 2.1513179 -12.5625 1.375 C-11.90701172 1.2409375 -11.25152344 1.106875 -10.57617188 0.96875 C-7.00225146 0.26615381 -3.64175979 -0.15437132 0 0 Z " fill="#4E8AE5" transform="translate(214,2)"/>
<path d="M0 0 C2.96988952 0.31476995 2.96988952 0.31476995 6.76953125 0.25390625 C6.76953125 0.91390625 6.76953125 1.57390625 6.76953125 2.25390625 C9.24453125 2.74890625 9.24453125 2.74890625 11.76953125 3.25390625 C11.76953125 3.58390625 11.76953125 3.91390625 11.76953125 4.25390625 C2.42547368 3.34964261 -6.90152773 2.3006175 -16.23046875 1.25390625 C-16.23046875 0.92390625 -16.23046875 0.59390625 -16.23046875 0.25390625 C-10.66067244 -0.88537027 -5.64537929 -0.57250958 0 0 Z " fill="#4C8AE1" transform="translate(355.23046875,94.74609375)"/>
<path d="M0 0 C0.66 0 1.32 0 2 0 C1.82984375 0.54785156 1.6596875 1.09570312 1.484375 1.66015625 C-0.87797424 9.38805402 -2.94741573 17.18559289 -5 25 C-5.33 25 -5.66 25 -6 25 C-6.27166506 17.52921098 -5.57770698 10.67437773 -2 4 C-1.34 4 -0.68 4 0 4 C0 2.68 0 1.36 0 0 Z " fill="#4F8BDF" transform="translate(200,150)"/>
<path d="M0 0 C-0.86994165 3.55885219 -1.42317806 5.53230654 -4.3125 7.875 C-7.12436004 9.05205769 -8.98705767 9.2582522 -12 9 C-11.0919838 7.86800647 -10.17316174 6.74467637 -9.25 5.625 C-8.73953125 4.99851562 -8.2290625 4.37203125 -7.703125 3.7265625 C-5.40193949 1.3937093 -3.32507703 0 0 0 Z " fill="#2975EB" transform="translate(79,70)"/>
<path d="M0 0 C0.33 0.66 0.66 1.32 1 2 C1.66 2 2.32 2 3 2 C1.60443486 6.05982587 -0.45730403 9.40920629 -2.7578125 12.99609375 C-4.35804649 15.57760329 -5.69764208 18.25819386 -7 21 C-7.33 21 -7.66 21 -8 21 C-7.67 18.69 -7.34 16.38 -7 14 C-6.34 14 -5.68 14 -5 14 C-4.9175 13.05125 -4.835 12.1025 -4.75 11.125 C-4 8 -4 8 -1.9375 6.625 C-1.298125 6.41875 -0.65875 6.2125 0 6 C0 4.02 0 2.04 0 0 Z " fill="#5891E4" transform="translate(210,129)"/>
<path d="M0 0 C0.33 0 0.66 0 1 0 C1 4.29 1 8.58 1 13 C2.98 13 4.96 13 7 13 C7 12.34 7 11.68 7 11 C8.98 11 10.96 11 13 11 C12.67 11.99 12.34 12.98 12 14 C6.06 14.495 6.06 14.495 0 15 C0 10.05 0 5.1 0 0 Z " fill="#4379D4" transform="translate(280,484)"/>
<path d="M0 0 C2.64 0.33 5.28 0.66 8 1 C8 1.66 8 2.32 8 3 C9.65 3 11.3 3 13 3 C13.66 4.32 14.32 5.64 15 7 C13.68 6.67 12.36 6.34 11 6 C11 6.66 11 7.32 11 8 C6.99698968 6.23867546 3.3971023 3.73867517 0 1 C0 0.67 0 0.34 0 0 Z " fill="#387FEA" transform="translate(95,447)"/>
<path d="M0 0 C0.66 0 1.32 0 2 0 C8.46646341 12.625 8.46646341 12.625 8 19 C5.24020259 15.71414149 3.81690532 12.37771204 2.3125 8.375 C1.87550781 7.22773438 1.43851563 6.08046875 0.98828125 4.8984375 C0 2 0 2 0 0 Z " fill="#4585E3" transform="translate(15,337)"/>
<path d="M0 0 C0.33 0 0.66 0 1 0 C2.32719886 6.96779403 2.08825381 13.92988911 2 21 C-2.00004804 16.99995196 -1.11396655 10.4055667 -1.1328125 5.015625 C-1 3 -1 3 0 0 Z " fill="#3B80E1" transform="translate(1,265)"/>
<path d="M0 0 C0.66 0.33 1.32 0.66 2 1 C0.8141763 4.37503669 -0.27573689 6.64722731 -3 9 C-3.99 8.67 -4.98 8.34 -6 8 C-6 7.67 -6 7.34 -6 7 C-7.65 7 -9.3 7 -11 7 C-7.87031158 3.26844842 -5.74877018 2.63316936 -1 2 C-0.67 1.34 -0.34 0.68 0 0 Z " fill="#2571EF" transform="translate(117,38)"/>
<path d="M0 0 C1.74216797 0.02707031 1.74216797 0.02707031 3.51953125 0.0546875 C4.39996094 0.07789063 5.28039062 0.10109375 6.1875 0.125 C0.69062124 3.09156949 -5.55660231 4.5286063 -11.8125 4.125 C-11.8125 3.465 -11.8125 2.805 -11.8125 2.125 C-7.73526266 0.17468308 -4.49557578 -0.09081971 0 0 Z " fill="#4F8CE6" transform="translate(304.8125,492.875)"/>
<path d="M0 0 C0.99 0 1.98 0 3 0 C3 1.65 3 3.3 3 5 C1.35 5.66 -0.3 6.32 -2 7 C-2 8.32 -2 9.64 -2 11 C-2.99 11 -3.98 11 -5 11 C-3.78310457 6.97488434 -2.50546238 3.40742883 0 0 Z " fill="#337AE6" transform="translate(289,183)"/>
<path d="M0 0 C0.99 0.33 1.98 0.66 3 1 C1.73351229 2.9403434 0.46164538 4.87717647 -0.8125 6.8125 C-1.52019531 7.89144531 -2.22789062 8.97039062 -2.95703125 10.08203125 C-4.5360045 12.33727603 -5.9683117 14.17340327 -8 16 C-8 14.02 -8 12.04 -8 10 C-6.68 9.67 -5.36 9.34 -4 9 C-3.67 7.68 -3.34 6.36 -3 5 C-2.34 5 -1.68 5 -1 5 C-0.67 3.35 -0.34 1.7 0 0 Z " fill="#407ADC" transform="translate(459,384)"/>
<path d="M0 0 C-2.41032251 1.20216334 -4.82683479 2.38674978 -7.25 3.5625 C-8.27287109 4.07586914 -8.27287109 4.07586914 -9.31640625 4.59960938 C-13.02168909 6.38030356 -15.07871478 7.3058334 -19 6 C-18.67 5.34 -18.34 4.68 -18 4 C-14.9375 3.375 -14.9375 3.375 -12 3 C-12 2.67 -12 2.34 -12 2 C-10.35 2 -8.7 2 -7 2 C-7 1.34 -7 0.68 -7 0 C-3.98968256 -0.93423645 -3.13349732 -1.04449911 0 0 Z " fill="#5694E6" transform="translate(358,477)"/>
<path d="M0 0 C2.49552403 2.27597646 4.06622986 4.60721178 5.6875 7.5625 C6.12449219 8.34753906 6.56148438 9.13257812 7.01171875 9.94140625 C8 12 8 12 8 14 C4.13230615 12.71076872 3.25865172 11.38797758 1 8 C0.46083854 5.3397977 0.26629902 2.70737337 0 0 Z " fill="#538FE8" transform="translate(463,118)"/>
<path d="M0 0 C-1.7664657 1.0076952 -3.53833823 2.00591714 -5.3125 3 C-6.79169922 3.8353125 -6.79169922 3.8353125 -8.30078125 4.6875 C-11 6 -11 6 -14 6 C-14 5.01 -14 4.02 -14 3 C-12.35 3 -10.7 3 -9 3 C-9 2.01 -9 1.02 -9 0 C-5.5657338 -0.85856655 -3.38317487 -0.97591583 0 0 Z " fill="#508BE4" transform="translate(372,470)"/>
<path d="M0 0 C0.99 0.33 1.98 0.66 3 1 C3 1.66 3 2.32 3 3 C3.556875 3.20625 4.11375 3.4125 4.6875 3.625 C7.92501302 5.55000774 9.68231141 8.03850902 12 11 C9.69 10.67 7.38 10.34 5 10 C5.33 8.68 5.66 7.36 6 6 C4.68 5.67 3.36 5.34 2 5 C2 4.01 2 3.02 2 2 C1.34 2 0.68 2 0 2 C0 1.34 0 0.68 0 0 Z " fill="#528EE2" transform="translate(411,58)"/>
<path d="M0 0 C0.33 0 0.66 0 1 0 C1.05428973 2.22889496 1.09292338 4.45817471 1.125 6.6875 C1.14820313 7.92886719 1.17140625 9.17023438 1.1953125 10.44921875 C1.01032021 13.81237857 0.45767895 15.9985587 -1 19 C-1.33 19 -1.66 19 -2 19 C-2.24794402 12.4294834 -1.32388229 6.43028541 0 0 Z " fill="#4F88E5" transform="translate(350,307)"/>
<path d="M0 0 C0.33 0 0.66 0 1 0 C1 1.65 1 3.3 1 5 C-4.23880078 4.44854729 -8.97350697 3.57077907 -14 2 C-14 1.67 -14 1.34 -14 1 C-8.80790596 0.78807779 -4.873261 1.4087311 0 3 C0 2.01 0 1.02 0 0 Z " fill="#4F87DE" transform="translate(189,488)"/>
<path d="M0 0 C0.99 0 1.98 0 3 0 C2.34 5.61 1.68 11.22 1 17 C0.67 17 0.34 17 0 17 C0 11.39 0 5.78 0 0 Z " fill="#538BE5" transform="translate(191,176)"/>
<path d="M0 0 C5.03672443 0.86343847 9.70031518 1.83197707 13 6 C13 6.66 13 7.32 13 8 C7.73691968 6.58795406 4.2437012 4.31008693 0 1 C0 0.67 0 0.34 0 0 Z " fill="#5D93E5" transform="translate(112,459)"/>
<path d="M0 0 C4.29 0 8.58 0 13 0 C13 0.99 13 1.98 13 3 C8.71 2.67 4.42 2.34 0 2 C0 1.34 0 0.68 0 0 Z " fill="#0C66E7" transform="translate(256,0)"/>
<path d="M0 0 C0.66 0 1.32 0 2 0 C1.67 5.94 1.34 11.88 1 18 C0.67 18 0.34 18 0 18 C-0.19384179 15.18780295 -0.38036603 12.37545804 -0.5625 9.5625 C-0.61857422 8.76005859 -0.67464844 7.95761719 -0.73242188 7.13085938 C-0.8616295 5.08937889 -0.9351273 3.04453631 -1 1 C-0.67 0.67 -0.34 0.34 0 0 Z " fill="#1364E3" transform="translate(189,186)"/>
<path d="M0 0 C1.32 0.33 2.64 0.66 4 1 C4 1.66 4 2.32 4 3 C7.63 3 11.26 3 15 3 C15 3.33 15 3.66 15 4 C9.94997778 5.03590199 5.12583611 5.10251672 0 5 C0 3.33333333 0 1.66666667 0 0 Z " fill="#0D63ED" transform="translate(289,88)"/>
<path d="M0 0 C0.99 0.33 1.98 0.66 3 1 C0.36 4.3 -2.28 7.6 -5 11 C-5.33 10.34 -5.66 9.68 -6 9 C-5.67 8.01 -5.34 7.02 -5 6 C-4.34 6 -3.68 6 -3 6 C-3 4.68 -3 3.36 -3 2 C-2.01 2 -1.02 2 0 2 C0 1.34 0 0.68 0 0 Z " fill="#568DE2" transform="translate(448,400)"/>
<path d="M0 0 C0.33 0 0.66 0 1 0 C1.02688151 1.64574566 1.04634123 3.29161413 1.0625 4.9375 C1.07410156 5.85402344 1.08570313 6.77054688 1.09765625 7.71484375 C1 10 1 10 0 11 C-0.36760731 13.32817964 -0.70241581 15.6618385 -1 18 C-1.33 18 -1.66 18 -2 18 C-2.20852314 11.59370576 -2.1583195 6.07027358 0 0 Z " fill="#4186E4" transform="translate(10,175)"/>
<path d="M0 0 C2 3 2 3 2 6 C2.66 6 3.32 6 4 6 C4 6.66 4 7.32 4 8 C4.99 8.33 5.98 8.66 7 9 C6.01 9.495 6.01 9.495 5 10 C4.34 9.67 3.68 9.34 3 9 C3 8.34 3 7.68 3 7 C2.401875 6.7525 1.80375 6.505 1.1875 6.25 C-1.28647521 4.83629988 -2.43370255 3.34944617 -4 1 C-2.68 0.67 -1.36 0.34 0 0 Z " fill="#528EE8" transform="translate(83,432)"/>
<path d="M0 0 C3 1 3 1 4.6875 4.0625 C5.120625 5.031875 5.55375 6.00125 6 7 C4 7 2 7 0 7 C0 4.69 0 2.38 0 0 Z " fill="#3C81EB" transform="translate(452,103)"/>
<path d="M0 0 C-5.94 3.465 -5.94 3.465 -12 7 C-12.33 6.01 -12.66 5.02 -13 4 C-11.35 3.67 -9.7 3.34 -8 3 C-8 2.01 -8 1.02 -8 0 C-4.71303767 -0.79953138 -3.28976808 -1.09658936 0 0 Z " fill="#5B90E4" transform="translate(244,107)"/>
<path d="M0 0 C0.53625 0.37125 1.0725 0.7425 1.625 1.125 C1.295 1.785 0.965 2.445 0.625 3.125 C-3.335 3.125 -7.295 3.125 -11.375 3.125 C-4.30720339 -1.58686441 -4.30720339 -1.58686441 0 0 Z " fill="#4F8CEC" transform="translate(174.375,11.875)"/>
<path d="M0 0 C2.64 0 5.28 0 8 0 C8 0.66 8 1.32 8 2 C8.99 2.33 9.98 2.66 11 3 C7.37 3 3.74 3 0 3 C0 2.01 0 1.02 0 0 Z " fill="#3D86E6" transform="translate(269,0)"/>
<path d="M0 0 C1.66870487 0.32297514 3.33465333 0.66013333 5 1 C5.75925781 1.1340625 6.51851562 1.268125 7.30078125 1.40625 C8.10902344 1.5609375 8.91726562 1.715625 9.75 1.875 C10.52859375 2.01679688 11.3071875 2.15859375 12.109375 2.3046875 C12.73328125 2.53414063 13.3571875 2.76359375 14 3 C14.33 3.99 14.66 4.98 15 6 C13.24719267 5.57388649 11.49782565 5.13360733 9.75 4.6875 C8.77546875 4.44386719 7.8009375 4.20023437 6.796875 3.94921875 C4.01024335 3.00347644 2.22695632 1.89291287 0 0 Z " fill="#5E92E6" transform="translate(153,481)"/>
<path d="M0 0 C0.66 0 1.32 0 2 0 C2.36552803 1.41377782 2.71695495 2.83120576 3.0625 4.25 C3.25972656 5.03890625 3.45695312 5.8278125 3.66015625 6.640625 C4.01497267 9.10394822 3.76877544 10.65604132 3 13 C0.89172945 9.83759418 0.66182535 8.49342531 0.375 4.8125 C0.30023438 3.91144531 0.22546875 3.01039063 0.1484375 2.08203125 C0.09945313 1.39496094 0.05046875 0.70789063 0 0 Z " fill="#538BE1" transform="translate(492,189)"/>
<path d="M0 0 C1.71872538 2.57808807 2.48218488 4.10424011 3.25 7 C3.44078125 7.680625 3.6315625 8.36125 3.828125 9.0625 C4 11 4 11 2 14 C0.09391902 10.78817851 -0.22266247 8.46117397 -0.125 4.75 C-0.09792969 3.41195312 -0.09792969 3.41195312 -0.0703125 2.046875 C-0.04710937 1.37140625 -0.02390625 0.6959375 0 0 Z " fill="#4282E6" transform="translate(485,163)"/>
<path d="M0 0 C2.31 0 4.62 0 7 0 C3.56638098 3.63559661 0.2026393 6.36113346 -4 9 C-3.67 7.68 -3.34 6.36 -3 5 C-1.68 4.67 -0.36 4.34 1 4 C0.67 2.68 0.34 1.36 0 0 Z " fill="#5593E4" transform="translate(224,114)"/>
<path d="M0 0 C0.66 0.33 1.32 0.66 2 1 C1.360625 1.268125 0.72125 1.53625 0.0625 1.8125 C-2.33131686 2.88667752 -2.33131686 2.88667752 -3 6 C-5.875 6.625 -5.875 6.625 -9 7 C-9.66 6.34 -10.32 5.68 -11 5 C-9.21289414 4.13633178 -7.4201535 3.28431406 -5.625 2.4375 C-4.62726563 1.96183594 -3.62953125 1.48617188 -2.6015625 0.99609375 C-1.74304688 0.66738281 -0.88453125 0.33867187 0 0 Z " fill="#508CE3" transform="translate(151,19)"/>
<path d="M0 0 C0.66 1.32 1.32 2.64 2 4 C0.38405168 6.04119788 -1.2856382 8.04072937 -3 10 C-3.66 10 -4.32 10 -5 10 C-5 8.35 -5 6.7 -5 5 C-3.35 5 -1.7 5 0 5 C0 3.35 0 1.7 0 0 Z " fill="#558BE1" transform="translate(427,422)"/>
<path d="M0 0 C2 1.375 2 1.375 4 3 C4 3.66 4 4.32 4 5 C4.66 5 5.32 5 6 5 C6 5.66 6 6.32 6 7 C6.66 7 7.32 7 8 7 C8.33 7.99 8.66 8.98 9 10 C8.01 10.495 8.01 10.495 7 11 C7 10.01 7 9.02 7 8 C5.35 7.67 3.7 7.34 2 7 C1.34 4.69 0.68 2.38 0 0 Z " fill="#548CE4" transform="translate(433,79)"/>
<path d="M0 0 C-5.00932754 3.00559652 -8.32723489 3.29341888 -14 3 C-9.7368213 0.15788087 -5.03577274 -2.0143091 0 0 Z " fill="#4888E0" transform="translate(190,8)"/>
<path d="M0 0 C1.32 0.33 2.64 0.66 4 1 C4 1.66 4 2.32 4 3 C5.65 3.33 7.3 3.66 9 4 C8.34 5.32 7.68 6.64 7 8 C1.125 3.375 1.125 3.375 0 0 Z " fill="#4682E2" transform="translate(71,425)"/>
<path d="M0 0 C2.64 0 5.28 0 8 0 C5.51047079 2.66735273 3.36591866 4.55746343 0 6 C0 4.02 0 2.04 0 0 Z " fill="#427FE3" transform="translate(396,448)"/>
<path d="M0 0 C5.75 1.75 5.75 1.75 8 4 C6.02 4.66 4.04 5.32 2 6 C1.34 5.34 0.68 4.68 0 4 C0.66 4 1.32 4 2 4 C2 3.34 2 2.68 2 2 C1.34 2 0.68 2 0 2 C0 1.34 0 0.68 0 0 Z " fill="#407FE8" transform="translate(360,25)"/>
<path d="M0 0 C0.97608217 2.92824652 1.08226668 4.95613276 1 8 C-0.70884005 6.37660195 -2.37446717 4.70680947 -4 3 C-4 2.34 -4 1.68 -4 1 C-2.68 0.67 -1.36 0.34 0 0 Z " fill="#508FEE" transform="translate(47,390)"/>
<path d="M0 0 C0.66 0 1.32 0 2 0 C1.67 3.63 1.34 7.26 1 11 C-0.99512373 7.00975253 -1.28727578 5.30913667 -1 1 C-0.67 0.67 -0.34 0.34 0 0 Z " fill="#5091E8" transform="translate(496,287)"/>
<path d="M0 0 C-1 2 -1 2 -3.375 3.125 C-6 4 -6 4 -9 4 C-9 3.01 -9 2.02 -9 1 C-6.04335481 -0.4783226 -3.25770263 -0.06032783 0 0 Z " fill="#3C7DE2" transform="translate(327,167)"/>
<path d="M0 0 C1.65 0 3.3 0 5 0 C5.33 2.31 5.66 4.62 6 7 C3.95880212 5.38405168 1.95927063 3.7143618 0 2 C0 1.34 0 0.68 0 0 Z " fill="#4083E4" transform="translate(63,416)"/>
<path d="M0 0 C2.2477975 2.05233685 3.0022242 3.00667261 4 6 C3.5625 8.6875 3.5625 8.6875 3 11 C1.5 10 1.5 10 0 8 C-0.27345479 5.28153765 -0.13491285 2.74322801 0 0 Z " fill="#0963EA" transform="translate(0,260)"/>
<path d="M0 0 C0.66 0.33 1.32 0.66 2 1 C1.71125 1.70125 1.4225 2.4025 1.125 3.125 C-0.02133588 6.05452503 -1.02625654 9.00921653 -2 12 C-2.66 12 -3.32 12 -4 12 C-3.67 9.36 -3.34 6.72 -3 4 C-2.01 4 -1.02 4 0 4 C0 2.68 0 1.36 0 0 Z " fill="#0E63EC" transform="translate(287,190)"/>
<path d="M0 0 C1.32 0.66 2.64 1.32 4 2 C-1.625 6 -1.625 6 -5 6 C-3.35 4.02 -1.7 2.04 0 0 Z " fill="#427EE4" transform="translate(56,91)"/>
<path d="M0 0 C3.36591866 1.44253657 5.51047079 3.33264727 8 6 C5.03 5.505 5.03 5.505 2 5 C2 4.34 2 3.68 2 3 C1.34 3 0.68 3 0 3 C0 2.01 0 1.02 0 0 Z " fill="#4A8AE2" transform="translate(403,52)"/>
<path d="M0 0 C3.93673644 1.31224548 6.22719294 2.91910327 9 6 C6.1875 5.8125 6.1875 5.8125 3 5 C1.125 2.4375 1.125 2.4375 0 0 Z " fill="#6597E7" transform="translate(382,37)"/>
<path d="M0 0 C1.98 0 3.96 0 6 0 C5.67 0.99 5.34 1.98 5 3 C2.36 3 -0.28 3 -3 3 C-2.01 2.67 -1.02 2.34 0 2 C0 1.34 0 0.68 0 0 Z " fill="#3379E2" transform="translate(287,495)"/>
<path d="M0 0 C1.98 1.65 3.96 3.3 6 5 C5.34 5.66 4.68 6.32 4 7 C1.875 6.625 1.875 6.625 0 6 C0 4.02 0 2.04 0 0 Z " fill="#3F7FE6" transform="translate(427,73)"/>
<path d="M0 0 C0 3.16880694 -0.2058242 4.43689172 -2 7 C-4.625 7.75 -4.625 7.75 -7 8 C-6.02133662 6.85373678 -5.04205413 5.70800212 -4.0625 4.5625 C-3.51722656 3.92441406 -2.97195312 3.28632812 -2.41015625 2.62890625 C-1.63204305 1.73008851 -0.84063472 0.84063472 0 0 Z " fill="#568BE6" transform="translate(82,63)"/>
<path d="M0 0 C0.66 0.33 1.32 0.66 2 1 C0.8125 3.5 0.8125 3.5 -1 6 C-3.6875 6.3125 -3.6875 6.3125 -6 6 C-4 4 -2 2 0 0 Z " fill="#588DE5" transform="translate(95,52)"/>
<path d="M0 0 C2.35981813 0.93578995 4.69631264 1.93347808 7 3 C7 3.33 7 3.66 7 4 C3.7 4 0.4 4 -3 4 C-2.67 3.01 -2.34 2.02 -2 1 C-1.34 0.67 -0.68 0.34 0 0 Z " fill="#4C8DE9" transform="translate(374,32)"/>
<path d="M0 0 C4.95 0.99 4.95 0.99 10 2 C8.68 2.99 7.36 3.98 6 5 C5.34 4.34 4.68 3.68 4 3 C1.93125966 2.3574765 1.93125966 2.3574765 0 2 C0 1.34 0 0.68 0 0 Z " fill="#4985E5" transform="translate(321,10)"/>
<path d="M0 0 C0.66 0 1.32 0 2 0 C2 0.66 2 1.32 2 2 C2.66 2.33 3.32 2.66 4 3 C2.68 4.32 1.36 5.64 0 7 C-0.38133299 5.0085944 -0.71325582 3.00720923 -1 1 C-0.67 0.67 -0.34 0.34 0 0 Z " fill="#4283EF" transform="translate(438,409)"/>
<path d="M0 0 C1.45606519 4.52092968 0.27032841 7.51648796 -1 12 C-1.33 12 -1.66 12 -2 12 C-2.05422947 10.5629191 -2.09289723 9.12524538 -2.125 7.6875 C-2.14820313 6.88699219 -2.17140625 6.08648437 -2.1953125 5.26171875 C-2 3 -2 3 0 0 Z " fill="#5D95E5" transform="translate(493,307)"/>
<path d="M0 0 C3.65316671 1.24976756 4.78065836 1.67098753 7 5 C4.69 4.67 2.38 4.34 0 4 C0 2.68 0 1.36 0 0 Z " fill="#5995E8" transform="translate(391,43)"/>
<path d="M0 0 C1.65 0 3.3 0 5 0 C4.1875 1.9375 4.1875 1.9375 3 4 C2.01 4.33 1.02 4.66 0 5 C0 3.35 0 1.7 0 0 Z " fill="#4884E4" transform="translate(411,437)"/>
<path d="M0 0 C0.99 0.33 1.98 0.66 3 1 C1.35 3.64 -0.3 6.28 -2 9 C-2.33 7.68 -2.66 6.36 -3 5 C-2.34 5 -1.68 5 -1 5 C-0.67 3.35 -0.34 1.7 0 0 Z " fill="#4F86DA" transform="translate(459,384)"/>
<path d="M0 0 C0.66 0 1.32 0 2 0 C1.42647107 3.87132028 -0.48704352 6.08172796 -3 9 C-2.67 7.02 -2.34 5.04 -2 3 C-1.34 3 -0.68 3 0 3 C0 2.01 0 1.02 0 0 Z " fill="#6499DE" transform="translate(465,375)"/>
<path d="M0 0 C-1.0975223 2.99324263 -1.67682892 3.84610901 -4.625 5.25 C-5.40875 5.4975 -6.1925 5.745 -7 6 C-6.1875 3.5625 -6.1875 3.5625 -5 1 C-2 0 -2 0 0 0 Z " fill="#0E63F4" transform="translate(303,175)"/>
<path d="M0 0 C1.0625 1.875 1.0625 1.875 2 4 C1.67 4.66 1.34 5.32 1 6 C-0.32 6 -1.64 6 -3 6 C-2.625 3.5625 -2.625 3.5625 -2 1 C-1.34 0.67 -0.68 0.34 0 0 Z " fill="#347AE8" transform="translate(20,152)"/>
<path d="M0 0 C1 2 1 2 0.3125 4.5625 C-1 7 -1 7 -3.125 7.8125 C-3.74375 7.874375 -4.3625 7.93625 -5 8 C-3.62845496 5.04590299 -2.01136276 2.55991624 0 0 Z " fill="#709EE7" transform="translate(50,98)"/>
<path d="M0 0 C2.64 0 5.28 0 8 0 C4.81237635 2.12508244 2.73487777 2.5020163 -1 3 C-0.67 2.01 -0.34 1.02 0 0 Z " fill="#6597E7" transform="translate(340,481)"/>
<path d="M0 0 C2.15377564 2.62198774 3.40072174 4.64404172 4 8 C3.01 8.495 3.01 8.495 2 9 C0.4375 6.1875 0.4375 6.1875 -1 3 C-0.67 2.01 -0.34 1.02 0 0 Z " fill="#4887E5" transform="translate(26,359)"/>
</svg>
