<?xml version="1.0" encoding="UTF-8"?>
<svg version="1.1" xmlns="http://www.w3.org/2000/svg" width="500" height="500">
<path d="M0 0 C2.08038324 1.28594269 4.17190667 2.52692248 6.2890625 3.75 C12.69128005 7.47066877 18.63189354 11.09750321 24.05859375 16.1953125 C26.06764256 18.02444649 28.26021427 19.30906001 30.62890625 20.625 C32.94140625 22.1875 32.94140625 22.1875 34.62890625 23.625 C34.62890625 24.285 34.62890625 24.945 34.62890625 25.625 C35.28890625 25.625 35.94890625 25.625 36.62890625 25.625 C36.95890625 26.615 37.28890625 27.605 37.62890625 28.625 C35.81640625 31.3125 35.81640625 31.3125 33.62890625 33.625 C32.96890625 33.625 32.30890625 33.625 31.62890625 33.625 C31.62890625 34.285 31.62890625 34.945 31.62890625 35.625 C30.0546875 37.140625 30.0546875 37.140625 27.94140625 38.875 C25.27541492 41.12575728 22.91880534 43.32549545 20.75390625 46.0625 C20.05265625 46.908125 19.35140625 47.75375 18.62890625 48.625 C17.96890625 48.625 17.30890625 48.625 16.62890625 48.625 C16.62890625 49.285 16.62890625 49.945 16.62890625 50.625 C15.0546875 52.140625 15.0546875 52.140625 12.94140625 53.875 C10.27541492 56.12575728 7.91880534 58.32549545 5.75390625 61.0625 C5.05265625 61.908125 4.35140625 62.75375 3.62890625 63.625 C2.96890625 63.625 2.30890625 63.625 1.62890625 63.625 C1.62890625 64.285 1.62890625 64.945 1.62890625 65.625 C0.96890625 65.625 0.30890625 65.625 -0.37109375 65.625 C-0.37109375 66.285 -0.37109375 66.945 -0.37109375 67.625 C-1.9453125 69.140625 -1.9453125 69.140625 -4.05859375 70.875 C-6.72458508 73.12575728 -9.08119466 75.32549545 -11.24609375 78.0625 C-11.94734375 78.908125 -12.64859375 79.75375 -13.37109375 80.625 C-14.03109375 80.625 -14.69109375 80.625 -15.37109375 80.625 C-15.37109375 81.285 -15.37109375 81.945 -15.37109375 82.625 C-16.9453125 84.140625 -16.9453125 84.140625 -19.05859375 85.875 C-22.61073978 88.88454469 -25.51079744 91.96024535 -28.37109375 95.625 C-31.34303225 94.50048273 -33.70550062 93.40206209 -36.37109375 91.625 C-36.37109375 90.965 -36.37109375 90.305 -36.37109375 89.625 C-37.07234375 89.3775 -37.77359375 89.13 -38.49609375 88.875 C-41.37109375 87.625 -41.37109375 87.625 -43.9921875 85.82421875 C-71.08282685 67.49477204 -107.57919451 62.18417735 -139.49609375 67.6875 C-142.16530282 68.26952835 -144.74762468 68.8884908 -147.37109375 69.625 C-148.1815918 69.85074707 -148.99208984 70.07649414 -149.82714844 70.30908203 C-169.30713585 75.91871079 -189.05051839 84.85409208 -203.37109375 99.625 C-204.69543626 100.78121309 -206.02873027 101.92725901 -207.37109375 103.0625 C-210.42591229 105.71788555 -212.92366154 108.38807353 -215.37109375 111.625 C-216.45193772 112.81476623 -217.53559006 114.00198361 -218.62109375 115.1875 C-230.00234015 128.26382565 -237.49834239 144.03267617 -242.80859375 160.4375 C-243.04336426 161.15236572 -243.27813477 161.86723145 -243.52001953 162.60375977 C-247.08825972 174.3187334 -247.7128377 186.32863606 -247.62109375 198.5 C-247.61360107 199.81629395 -247.6061084 201.13258789 -247.59838867 202.48876953 C-247.42952128 217.74721216 -245.46118636 231.25755204 -240.37109375 245.625 C-240.06300781 246.51574219 -239.75492187 247.40648437 -239.4375 248.32421875 C-234.02042579 262.89012941 -225.51016857 277.75326297 -214.37109375 288.625 C-213.23370356 289.94777978 -212.10757609 291.28037746 -210.99609375 292.625 C-208.30311279 295.74534532 -205.62431225 298.12601563 -202.14453125 300.32421875 C-200.37109375 301.625 -200.37109375 301.625 -198.0546875 304 C-174.59314161 326.94928506 -139.55908768 333.13719873 -108.24682617 332.99291992 C-80.98919703 332.68735445 -58.57880432 325.31407851 -35.24609375 311.63720703 C-33.37109375 310.625 -33.37109375 310.625 -30.37109375 309.625 C-30.09394531 309.03976562 -29.81679688 308.45453125 -29.53125 307.8515625 C-27.90319691 304.72701616 -25.57273984 303.15509695 -22.80859375 301 C-19.03547986 298.27491295 -19.03547986 298.27491295 -16.37109375 294.625 C-15.71109375 294.625 -15.05109375 294.625 -14.37109375 294.625 C-14.22671875 294.00625 -14.08234375 293.3875 -13.93359375 292.75 C-13.37109375 290.625 -13.37109375 290.625 -12.37109375 288.625 C-11.71109375 288.625 -11.05109375 288.625 -10.37109375 288.625 C-9.71109375 286.975 -9.05109375 285.325 -8.37109375 283.625 C-7.71109375 283.625 -7.05109375 283.625 -6.37109375 283.625 C-6.09910156 282.75488281 -5.82710938 281.88476562 -5.546875 280.98828125 C-4.42245359 277.77191303 -3.07286166 274.86101298 -1.55859375 271.8125 C2.45643332 263.18241865 2.45643332 263.18241865 6.62890625 247.625 C-33.30109375 247.625 -73.23109375 247.625 -114.37109375 247.625 C-115.19346968 242.69074444 -115.50794231 238.18839859 -115.48461914 233.23291016 C-115.48476517 232.41273407 -115.48491119 231.59255798 -115.48506165 230.74752808 C-115.48436837 228.05301208 -115.47660347 225.35856633 -115.46875 222.6640625 C-115.46688374 220.78933754 -115.46546082 218.9146121 -115.46446228 217.03988647 C-115.46065348 212.11784507 -115.45083721 207.19583341 -115.4397583 202.27380371 C-115.42950894 197.24634198 -115.42495712 192.21887543 -115.41992188 187.19140625 C-115.40921343 177.33592447 -115.39215672 167.48046471 -115.37109375 157.625 C-111.5723102 156.35873882 -108.01570317 156.48368629 -104.05810547 156.49128723 C-103.2001129 156.48902167 -102.34212032 156.48675612 -101.45812798 156.48442191 C-98.57233219 156.47807272 -95.68658326 156.47891186 -92.80078125 156.47973633 C-90.73626647 156.47674545 -88.67175225 156.47334309 -86.60723877 156.46955872 C-80.99168861 156.46070829 -75.37615368 156.45838019 -69.76059723 156.45774293 C-65.0783694 156.45679479 -60.39614514 156.45311768 -55.71391869 156.44957083 C-44.6719075 156.44142269 -33.62990447 156.43898697 -22.58789062 156.43969727 C-11.18224841 156.4402985 0.22334657 156.42973839 11.62897682 156.4139536 C21.40989722 156.40089771 31.19080214 156.39551253 40.97173119 156.39615268 C46.81859369 156.39640819 52.66541421 156.39352739 58.51226807 156.38297462 C64.00825864 156.37332614 69.50416682 156.37319202 75.00016022 156.38049126 C77.02105072 156.38154109 79.04194626 156.37915078 81.06282806 156.3731308 C83.81395636 156.3654641 86.56479631 156.37002011 89.31591797 156.37776184 C90.52538936 156.3700465 90.52538936 156.3700465 91.75929451 156.36217529 C95.58493628 156.38609111 97.36758049 156.45078283 100.62890625 158.625 C101.32080078 160.58935547 101.32080078 160.58935547 101.76171875 162.9921875 C101.92768555 163.87148926 102.09365234 164.75079102 102.26464844 165.65673828 C102.42610352 166.59501465 102.58755859 167.53329102 102.75390625 168.5 C102.92567383 169.46019043 103.09744141 170.42038086 103.27441406 171.40966797 C104.44735775 178.14327576 105.43100031 184.78433825 105.62890625 191.625 C105.64937012 192.2751709 105.66983398 192.9253418 105.69091797 193.59521484 C106.32748664 216.93781989 103.85438656 240.85683581 98.62890625 263.625 C98.29890625 263.955 97.96890625 264.285 97.62890625 264.625 C97.25555824 266.53802284 96.90654711 268.45579461 96.56640625 270.375 C95.19068647 277.0084211 93.11480412 283.17789886 90.69140625 289.5 C90.3555249 290.37881836 90.01964355 291.25763672 89.67358398 292.16308594 C87.82683925 296.88110561 85.79301971 301.41812212 83.4753418 305.92236328 C82.47261203 307.93939166 81.72766458 309.99349196 81.00390625 312.125 C78.26232993 319.13483435 74.02773012 325.28640698 69.95019531 331.57470703 C68.66530899 333.56851252 67.40526203 335.57583037 66.15234375 337.58984375 C65.37391616 338.83086608 64.59527984 340.07175753 63.81640625 341.3125 C63.12933594 342.40949219 62.44226563 343.50648438 61.734375 344.63671875 C59.60143437 347.6639907 57.27739524 350.04675175 54.62890625 352.625 C53.19186721 354.37934145 51.77529818 356.15063551 50.37890625 357.9375 C46.77620317 362.39884732 42.99049246 366.20368534 38.62890625 369.9140625 C36.97835463 371.32605783 35.41481827 372.83908798 33.87890625 374.375 C31.58267011 376.67123614 29.17558342 378.61134829 26.62890625 380.625 C25.39748548 381.72665222 24.16855684 382.83109314 22.94140625 383.9375 C14.75919128 391.09956349 5.60545392 396.54583684 -3.87109375 401.8125 C-4.93457031 402.41513672 -5.99804688 403.01777344 -7.09375 403.63867188 C-13.3794047 407.15169729 -19.63406292 410.10092747 -26.37109375 412.625 C-27.78833448 413.20244782 -29.20377163 413.78434606 -30.6171875 414.37109375 C-40.18109815 418.25710201 -49.72344565 421.22738548 -59.75 423.6796875 C-63.15810085 424.24348445 -63.15810085 424.24348445 -64.37109375 425.625 C-66.02901322 425.91160493 -67.697022 426.14031307 -69.3671875 426.34375 C-70.91889648 426.53517578 -70.91889648 426.53517578 -72.50195312 426.73046875 C-73.59314453 426.86066406 -74.68433594 426.99085938 -75.80859375 427.125 C-76.86498047 427.25519531 -77.92136719 427.38539063 -79.00976562 427.51953125 C-82.128911 427.90005545 -85.24957749 428.2645026 -88.37109375 428.625 C-89.1902124 428.72578857 -90.00933105 428.82657715 -90.85327148 428.93041992 C-135.4460843 434.02290897 -194.85028938 426.88141887 -231.10864258 398.48071289 C-231.85525146 397.86832764 -232.60186035 397.25594238 -233.37109375 396.625 C-234.82845459 395.89240895 -236.30907854 395.20440686 -237.80859375 394.5625 C-244.48931923 391.35215138 -249.94265693 386.64561583 -255.64208984 381.98046875 C-257.47785084 380.54130678 -259.3732649 379.22507593 -261.296875 377.90625 C-262.81861328 376.77703125 -262.81861328 376.77703125 -264.37109375 375.625 C-264.37109375 374.965 -264.37109375 374.305 -264.37109375 373.625 C-264.92152344 373.39039063 -265.47195313 373.15578125 -266.0390625 372.9140625 C-273.32288449 368.88782924 -279.46586763 361.87450063 -284.73828125 355.51171875 C-286.43013739 353.49986251 -286.43013739 353.49986251 -288.734375 351.34375 C-291.74268195 348.24185128 -294.19851795 344.96078524 -296.68359375 341.4375 C-297.13798828 340.80908203 -297.59238281 340.18066406 -298.06054688 339.53320312 C-301.37109375 334.87852444 -301.37109375 334.87852444 -301.37109375 332.625 C-302.03109375 332.625 -302.69109375 332.625 -303.37109375 332.625 C-304.95703125 330.46484375 -304.95703125 330.46484375 -306.74609375 327.5625 C-307.33132813 326.62277344 -307.9165625 325.68304688 -308.51953125 324.71484375 C-310.16493364 321.96903513 -311.76554953 319.20232443 -313.34423828 316.41772461 C-314.35855751 314.64688626 -315.40046107 312.89514984 -316.44921875 311.14453125 C-322.60329556 300.72679968 -327.19688071 289.96760744 -331.37109375 278.625 C-331.61843262 277.96145508 -331.86577148 277.29791016 -332.12060547 276.61425781 C-350.92413248 225.58569986 -349.15511011 165.98152015 -329.37109375 115.625 C-329.04318848 114.78791504 -328.7152832 113.95083008 -328.37744141 113.08837891 C-325.05284214 104.69954593 -321.69832074 96.47966391 -316.79296875 88.87109375 C-315.21294724 86.37518065 -313.86232545 83.80611075 -312.49609375 81.1875 C-308.64447041 74.05037119 -303.91401543 67.51478915 -298.62109375 61.375 C-296.07945878 58.26855726 -294.27533342 55.15136976 -292.37109375 51.625 C-291.71109375 51.625 -291.05109375 51.625 -290.37109375 51.625 C-290.37109375 50.965 -290.37109375 50.305 -290.37109375 49.625 C-289.71109375 49.625 -289.05109375 49.625 -288.37109375 49.625 C-288.37109375 48.965 -288.37109375 48.305 -288.37109375 47.625 C-287.71109375 47.625 -287.05109375 47.625 -286.37109375 47.625 C-286.11585938 47.05394531 -285.860625 46.48289062 -285.59765625 45.89453125 C-281.77566738 38.82263464 -274.82919076 32.33971402 -268.37109375 27.625 C-267.71109375 27.625 -267.05109375 27.625 -266.37109375 27.625 C-266.06171875 26.7896875 -266.06171875 26.7896875 -265.74609375 25.9375 C-263.42935138 22.04116057 -259.920683 19.52958256 -256.0625 17.27734375 C-252.88930877 15.32921619 -250.02916568 13.06326842 -247.12109375 10.75 C-242.86358671 7.42789493 -238.69094325 4.41157912 -233.87109375 1.94140625 C-231.95847861 0.93429484 -230.09040526 -0.15782084 -228.24609375 -1.28515625 C-207.10439197 -14.12388242 -182.52811091 -22.36862996 -158.25 -26.796875 C-155.44343997 -27.2295093 -155.44343997 -27.2295093 -153.37109375 -28.375 C-101.66892808 -36.84016018 -44.61597337 -27.78118139 0 0 Z " fill="#34A853" transform="translate(364.37109375,50.375)"/>
<path d="M0 0 C2.08038324 1.28594269 4.17190667 2.52692248 6.2890625 3.75 C12.69128005 7.47066877 18.63189354 11.09750321 24.05859375 16.1953125 C26.06764256 18.02444649 28.26021427 19.30906001 30.62890625 20.625 C32.94140625 22.1875 32.94140625 22.1875 34.62890625 23.625 C34.62890625 24.285 34.62890625 24.945 34.62890625 25.625 C35.28890625 25.625 35.94890625 25.625 36.62890625 25.625 C36.95890625 26.615 37.28890625 27.605 37.62890625 28.625 C35.81640625 31.3125 35.81640625 31.3125 33.62890625 33.625 C32.96890625 33.625 32.30890625 33.625 31.62890625 33.625 C31.62890625 34.285 31.62890625 34.945 31.62890625 35.625 C30.0546875 37.140625 30.0546875 37.140625 27.94140625 38.875 C25.27541492 41.12575728 22.91880534 43.32549545 20.75390625 46.0625 C20.05265625 46.908125 19.35140625 47.75375 18.62890625 48.625 C17.96890625 48.625 17.30890625 48.625 16.62890625 48.625 C16.62890625 49.285 16.62890625 49.945 16.62890625 50.625 C15.0546875 52.140625 15.0546875 52.140625 12.94140625 53.875 C10.27541492 56.12575728 7.91880534 58.32549545 5.75390625 61.0625 C5.05265625 61.908125 4.35140625 62.75375 3.62890625 63.625 C2.96890625 63.625 2.30890625 63.625 1.62890625 63.625 C1.62890625 64.285 1.62890625 64.945 1.62890625 65.625 C0.96890625 65.625 0.30890625 65.625 -0.37109375 65.625 C-0.37109375 66.285 -0.37109375 66.945 -0.37109375 67.625 C-1.9453125 69.140625 -1.9453125 69.140625 -4.05859375 70.875 C-6.72458508 73.12575728 -9.08119466 75.32549545 -11.24609375 78.0625 C-11.94734375 78.908125 -12.64859375 79.75375 -13.37109375 80.625 C-14.03109375 80.625 -14.69109375 80.625 -15.37109375 80.625 C-15.37109375 81.285 -15.37109375 81.945 -15.37109375 82.625 C-16.9453125 84.140625 -16.9453125 84.140625 -19.05859375 85.875 C-22.61073978 88.88454469 -25.51079744 91.96024535 -28.37109375 95.625 C-31.34303225 94.50048273 -33.70550062 93.40206209 -36.37109375 91.625 C-36.37109375 90.965 -36.37109375 90.305 -36.37109375 89.625 C-37.07234375 89.3775 -37.77359375 89.13 -38.49609375 88.875 C-41.37109375 87.625 -41.37109375 87.625 -43.9921875 85.82421875 C-71.08282685 67.49477204 -107.57919451 62.18417735 -139.49609375 67.6875 C-142.16530282 68.26952835 -144.74762468 68.8884908 -147.37109375 69.625 C-148.1815918 69.85074707 -148.99208984 70.07649414 -149.82714844 70.30908203 C-169.30713585 75.91871079 -189.05051839 84.85409208 -203.37109375 99.625 C-204.69543626 100.78121309 -206.02873027 101.92725901 -207.37109375 103.0625 C-210.42591229 105.71788555 -212.92366154 108.38807353 -215.37109375 111.625 C-216.45193772 112.81476623 -217.53559006 114.00198361 -218.62109375 115.1875 C-230.00234015 128.26382565 -237.49834239 144.03267617 -242.80859375 160.4375 C-243.04336426 161.15236572 -243.27813477 161.86723145 -243.52001953 162.60375977 C-247.08842838 174.31928711 -247.71131319 186.32822093 -247.62109375 198.5 C-247.61505127 199.81121826 -247.60900879 201.12243652 -247.6027832 202.47338867 C-247.47399079 215.05991981 -246.80472893 226.73479656 -242.37109375 238.625 C-242.37109375 239.615 -242.37109375 240.605 -242.37109375 241.625 C-247.71993096 246.625 -247.71993096 246.625 -250.37109375 246.625 C-250.37109375 247.285 -250.37109375 247.945 -250.37109375 248.625 C-251.7265625 249.80859375 -251.7265625 249.80859375 -253.55859375 251.0625 C-254.203125 251.50722656 -254.84765625 251.95195312 -255.51171875 252.41015625 C-256.91172553 253.32486656 -258.35202348 254.17834498 -259.80859375 255 C-262.26829473 256.55981038 -264.21801743 258.23564577 -266.37109375 260.1875 C-269.26097959 262.78785096 -271.64660339 264.38350321 -275.37109375 265.625 C-275.70109375 266.285 -276.03109375 266.945 -276.37109375 267.625 C-277.03109375 267.625 -277.69109375 267.625 -278.37109375 267.625 C-278.37109375 268.285 -278.37109375 268.945 -278.37109375 269.625 C-281.01955978 271.98714538 -282.98625771 273.49672132 -286.37109375 274.625 C-287.71532714 276.28288785 -289.04727858 277.95076317 -290.37109375 279.625 C-294.46817116 283.27915012 -299.33468172 286.90584978 -304.74609375 288.1875 C-305.28234375 288.331875 -305.81859375 288.47625 -306.37109375 288.625 C-306.70109375 289.615 -307.03109375 290.605 -307.37109375 291.625 C-309.39117098 293.93365969 -311.20573406 295.52991818 -313.87109375 297.0625 C-316.74748859 298.86024678 -318.38401533 300.90196661 -320.37109375 303.625 C-324.53181611 296.93243383 -327.18226815 290.01325725 -329.69873047 282.56689453 C-330.38225324 280.59276957 -331.10670636 278.6383199 -331.84375 276.68359375 C-350.92626993 225.62744207 -349.21196637 166.12623715 -329.37109375 115.625 C-329.04318848 114.78791504 -328.7152832 113.95083008 -328.37744141 113.08837891 C-325.05284214 104.69954593 -321.69832074 96.47966391 -316.79296875 88.87109375 C-315.21294724 86.37518065 -313.86232545 83.80611075 -312.49609375 81.1875 C-308.64447041 74.05037119 -303.91401543 67.51478915 -298.62109375 61.375 C-296.07945878 58.26855726 -294.27533342 55.15136976 -292.37109375 51.625 C-291.71109375 51.625 -291.05109375 51.625 -290.37109375 51.625 C-290.37109375 50.965 -290.37109375 50.305 -290.37109375 49.625 C-289.71109375 49.625 -289.05109375 49.625 -288.37109375 49.625 C-288.37109375 48.965 -288.37109375 48.305 -288.37109375 47.625 C-287.71109375 47.625 -287.05109375 47.625 -286.37109375 47.625 C-286.11585938 47.05394531 -285.860625 46.48289062 -285.59765625 45.89453125 C-281.77566738 38.82263464 -274.82919076 32.33971402 -268.37109375 27.625 C-267.71109375 27.625 -267.05109375 27.625 -266.37109375 27.625 C-266.06171875 26.7896875 -266.06171875 26.7896875 -265.74609375 25.9375 C-263.42935138 22.04116057 -259.920683 19.52958256 -256.0625 17.27734375 C-252.88930877 15.32921619 -250.02916568 13.06326842 -247.12109375 10.75 C-242.86358671 7.42789493 -238.69094325 4.41157912 -233.87109375 1.94140625 C-231.95847861 0.93429484 -230.09040526 -0.15782084 -228.24609375 -1.28515625 C-207.10439197 -14.12388242 -182.52811091 -22.36862996 -158.25 -26.796875 C-155.44343997 -27.2295093 -155.44343997 -27.2295093 -153.37109375 -28.375 C-101.66892808 -36.84016018 -44.61597337 -27.78118139 0 0 Z " fill="#E94235" transform="translate(364.37109375,50.375)"/>
<path d="M0 0 C0.85799257 -0.00226556 1.71598515 -0.00453111 2.59997749 -0.00686532 C5.48577328 -0.01321451 8.37152221 -0.01237537 11.25732422 -0.0115509 C13.321839 -0.01454178 15.38635322 -0.01794414 17.4508667 -0.02172852 C23.06641686 -0.03057894 28.68195178 -0.03290704 34.29750824 -0.0335443 C38.97973607 -0.03449244 43.66196033 -0.03816956 48.34418678 -0.0417164 C59.38619797 -0.04986455 70.428201 -0.05230026 81.47021484 -0.05158997 C92.87585706 -0.05098873 104.28145204 -0.06154884 115.68708229 -0.07733363 C125.46800269 -0.09038953 135.24890761 -0.0957747 145.02983665 -0.09513456 C150.87669915 -0.09487904 156.72351968 -0.09775984 162.57037354 -0.10831261 C168.06636411 -0.11796109 173.56227229 -0.11809521 179.05826569 -0.11079597 C181.07915618 -0.10974615 183.10005173 -0.11213645 185.12093353 -0.11815643 C187.87206183 -0.12582313 190.62290178 -0.12126713 193.37402344 -0.11352539 C194.58349483 -0.12124074 194.58349483 -0.12124074 195.81739998 -0.12911195 C199.64304175 -0.10519612 201.42568596 -0.04050441 204.68701172 2.13371277 C205.37890625 4.09806824 205.37890625 4.09806824 205.81982422 6.50090027 C205.98579102 7.38020203 206.15175781 8.25950378 206.32275391 9.16545105 C206.48420898 10.10372742 206.64566406 11.04200378 206.81201172 12.00871277 C206.9837793 12.9689032 207.15554688 13.92909363 207.33251953 14.91838074 C208.50546322 21.65198853 209.48910578 28.29305102 209.68701172 35.13371277 C209.70747559 35.78388367 209.72793945 36.43405457 209.74902344 37.10392761 C210.38559211 60.44653266 207.91249202 84.36554858 202.68701172 107.13371277 C202.35701172 107.46371277 202.02701172 107.79371277 201.68701172 108.13371277 C201.31366371 110.04673561 200.96465258 111.96450738 200.62451172 113.88371277 C199.24879194 120.51713387 197.17290959 126.68661163 194.74951172 133.00871277 C194.2456897 134.32694031 194.2456897 134.32694031 193.73168945 135.67179871 C191.88494472 140.38981838 189.85112518 144.92683489 187.53344727 149.43107605 C186.5307175 151.44810443 185.78577005 153.50220472 185.06201172 155.63371277 C182.3204354 162.64354711 178.08583559 168.79511975 174.00830078 175.0834198 C172.72341446 177.07722529 171.46336749 179.08454314 170.21044922 181.09855652 C169.43202163 182.33957885 168.65338531 183.5804703 167.87451172 184.82121277 C167.18744141 185.91820496 166.50037109 187.01519714 165.79248047 188.14543152 C163.65953984 191.17270347 161.33550071 193.55546452 158.68701172 196.13371277 C157.24997268 197.88805422 155.83340365 199.65934828 154.43701172 201.44621277 C150.27724974 206.60236664 145.73705336 210.87374106 140.68701172 215.13371277 C140.02701172 215.79371277 139.36701172 216.45371277 138.68701172 217.13371277 C138.02701172 216.41183777 137.36701172 215.68996277 136.68701172 214.94621277 C134.51360494 212.74803782 132.28543 211.20042166 129.62451172 209.63371277 C126.13333491 207.54419802 124.21128921 205.34642957 121.68701172 202.13371277 C116.92523873 197.92320292 112.10102585 194.70485877 106.35107422 192.03605652 C104.09341998 190.81183556 102.88796171 189.385494 101.68701172 187.13371277 C101.68701172 186.47371277 101.68701172 185.81371277 101.68701172 185.13371277 C100.36701172 185.13371277 99.04701172 185.13371277 97.68701172 185.13371277 C97.68701172 184.47371277 97.68701172 183.81371277 97.68701172 183.13371277 C97.06826172 182.88621277 96.44951172 182.63871277 95.81201172 182.38371277 C93.68701172 181.13371277 93.68701172 181.13371277 92.68701172 179.07121277 C92.19201172 178.11215027 92.19201172 178.11215027 91.68701172 177.13371277 C91.11080078 176.99965027 90.53458984 176.86558777 89.94091797 176.72746277 C86.99941918 175.95257921 85.08054852 174.47804339 82.62451172 172.69621277 C81.76728516 172.07875183 80.91005859 171.46129089 80.02685547 170.82511902 C79.25470703 170.26695496 78.48255859 169.70879089 77.68701172 169.13371277 C76.20201172 168.14371277 76.20201172 168.14371277 74.68701172 167.13371277 C73.68701172 165.4670461 72.68701172 163.80037944 71.68701172 162.13371277 C68.76936171 160.18861277 67.06163887 159.6809496 63.68701172 159.13371277 C66.1970028 156.98229184 68.2578152 155.2934138 71.37451172 154.13371277 C73.81232952 153.38811626 73.81232952 153.38811626 74.48388672 151.36027527 C76.15762169 148.26277874 78.48547682 146.66372303 81.24951172 144.50871277 C85.02262561 141.78362572 85.02262561 141.78362572 87.68701172 138.13371277 C88.34701172 138.13371277 89.00701172 138.13371277 89.68701172 138.13371277 C89.83138672 137.51496277 89.97576172 136.89621277 90.12451172 136.25871277 C90.68701172 134.13371277 90.68701172 134.13371277 91.68701172 132.13371277 C92.34701172 132.13371277 93.00701172 132.13371277 93.68701172 132.13371277 C94.34701172 130.48371277 95.00701172 128.83371277 95.68701172 127.13371277 C96.34701172 127.13371277 97.00701172 127.13371277 97.68701172 127.13371277 C97.95900391 126.26359558 98.23099609 125.39347839 98.51123047 124.49699402 C99.63565188 121.2806258 100.9852438 118.36972575 102.49951172 115.32121277 C106.51453879 106.69113142 106.51453879 106.69113142 110.68701172 91.13371277 C70.75701172 91.13371277 30.82701172 91.13371277 -10.31298828 91.13371277 C-11.13536421 86.19945721 -11.44983685 81.69711135 -11.42651367 76.74162292 C-11.4266597 75.92144684 -11.42680573 75.10127075 -11.42695618 74.25624084 C-11.4262629 71.56172484 -11.418498 68.8672791 -11.41064453 66.17277527 C-11.40877827 64.29805031 -11.40735535 62.42332486 -11.40635681 60.54859924 C-11.40254801 55.62655784 -11.39273174 50.70454618 -11.38165283 45.78251648 C-11.37140348 40.75505475 -11.36685165 35.72758819 -11.36181641 30.70011902 C-11.35110796 20.84463724 -11.33405125 10.98917748 -11.31298828 1.13371277 C-7.51420473 -0.13254842 -3.9575977 -0.00760094 0 0 Z " fill="#4386F4" transform="translate(260.31298828125,206.8662872314453)"/>
<path d="M0 0 C0.80050781 1.08667969 0.80050781 1.08667969 1.6171875 2.1953125 C4.17747329 5.20889479 6.97402493 7.52835156 10.125 9.875 C10.98170288 10.52408325 10.98170288 10.52408325 11.85571289 11.1862793 C16.05405291 14.34777519 20.3303133 17.38694239 24.68359375 20.33203125 C27.0317155 22.0228373 29.23841089 23.84261874 31.44897461 25.70825195 C33.93046479 27.77492353 36.4976786 29.72578452 39.0625 31.6875 C40.2070984 32.56371437 41.35162766 33.44001907 42.49609375 34.31640625 C43.07601074 34.76000488 43.65592773 35.20360352 44.25341797 35.66064453 C45.95520767 36.96565128 47.6522709 38.27653112 49.34765625 39.58984375 C54.50716459 43.5824753 59.69053156 47.51900579 65 51.3125 C67.87281045 53.37524471 70.54965721 55.38505959 73 57.9375 C74.91264601 60.22694838 74.91264601 60.22694838 78 61 C77.83564453 61.78697266 77.83564453 61.78697266 77.66796875 62.58984375 C77.31560732 64.31154472 76.97632087 66.03593532 76.64453125 67.76171875 C76.20281549 69.98100579 75.71876445 72.19216434 75.19921875 74.39453125 C70.59728399 95.92111706 70.22889094 122.15929842 78 143 C78 143.99 78 144.98 78 146 C72.65116279 151 72.65116279 151 70 151 C70 151.66 70 152.32 70 153 C68.64453125 154.18359375 68.64453125 154.18359375 66.8125 155.4375 C65.84570312 156.10458984 65.84570312 156.10458984 64.859375 156.78515625 C63.45936822 157.69986656 62.01907027 158.55334498 60.5625 159.375 C58.10279902 160.93481038 56.15307632 162.61064577 54 164.5625 C51.11011416 167.16285096 48.72449036 168.75850321 45 170 C44.67 170.66 44.34 171.32 44 172 C43.34 172 42.68 172 42 172 C42 172.66 42 173.32 42 174 C39.35153397 176.36214538 37.38483604 177.87172132 34 179 C32.65576661 180.65788785 31.32381517 182.32576317 30 184 C25.90292259 187.65415012 21.03641203 191.28084978 15.625 192.5625 C15.08875 192.706875 14.5525 192.85125 14 193 C13.67 193.99 13.34 194.98 13 196 C10.97992277 198.30865969 9.16535969 199.90491818 6.5 201.4375 C3.62360516 203.23524678 1.98707842 205.27696661 0 208 C-4.16072236 201.30743383 -6.8111744 194.38825725 -9.32763672 186.94189453 C-10.01115949 184.96776957 -10.73561261 183.0133199 -11.47265625 181.05859375 C-33.5133118 122.08781541 -26.48776696 57.50824432 -1 1 C-0.67 0.67 -0.34 0.34 0 0 Z " fill="#F9BC06" transform="translate(44,146)"/>
<path d="M0 0 C0.33 0 0.66 0 1 0 C6.76885831 31.5886999 4.16286754 64.79036284 -3 96 C-3.495 96.495 -3.495 96.495 -4 97 C-4.79397294 100.5479248 -5.48398367 104.11204237 -6.18359375 107.6796875 C-7 111 -7 111 -9 114 C-9.19818283 107.29481414 -9.30844801 101.34823202 -7 95 C-6.34 95 -5.68 95 -5 95 C-5 94.34 -5 93.68 -5 93 C-5.66 93 -6.32 93 -7 93 C-7.33 91.68 -7.66 90.36 -8 89 C-7.02933594 88.40445313 -7.02933594 88.40445313 -6.0390625 87.796875 C-3.81882611 86.18706379 -3.81882611 86.18706379 -3.4609375 83.765625 C-3.43257813 82.93546875 -3.40421875 82.1053125 -3.375 81.25 C-3.11061372 76.90021626 -2.22025342 73.19462112 -1 69 C-0.0089892 61.92671501 0.14616661 54.98684254 0.1328125 47.8515625 C0.13376923 46.71721771 0.13472595 45.58287292 0.13571167 44.41415405 C0.13638865 42.03244979 0.13456821 39.65074363 0.13037109 37.26904297 C0.12498602 33.61551826 0.13034775 29.96211482 0.13671875 26.30859375 C0.13605847 23.98958306 0.13477834 21.67057245 0.1328125 19.3515625 C0.13584885 17.71098373 0.13584885 17.71098373 0.13894653 16.03726196 C0.13421829 14.51955704 0.13421829 14.51955704 0.12939453 12.97119141 C0.12859894 12.08122467 0.12780334 11.19125793 0.12698364 10.27432251 C0.09067288 7.83393535 0.09067288 7.83393535 -1 5 C-0.5625 2.3125 -0.5625 2.3125 0 0 Z " fill="#6495E4" transform="translate(466,218)"/>
<path d="M0 0 C0.99 0 1.98 0 3 0 C2.89042969 0.52464844 2.78085938 1.04929688 2.66796875 1.58984375 C2.31560732 3.31154472 1.97632087 5.03593532 1.64453125 6.76171875 C1.20281549 8.98100579 0.71876445 11.19216434 0.19921875 13.39453125 C-4.40271601 34.92111706 -4.77110906 61.15929842 3 82 C3 82.99 3 83.98 3 85 C0.5 86.6875 0.5 86.6875 -2 88 C-2.495 85.525 -2.495 85.525 -3 83 C-2.34 83 -1.68 83 -1 83 C-1.30759178 81.02006459 -1.6212068 79.04106401 -1.9375 77.0625 C-2.11152344 75.96035156 -2.28554687 74.85820312 -2.46484375 73.72265625 C-2.71845136 71.09573071 -2.71845136 71.09573071 -4 70 C-4.11407465 66.86630231 -4.16421388 63.75559159 -4.16796875 60.62109375 C-4.17296135 59.18190331 -4.17296135 59.18190331 -4.17805481 57.71363831 C-4.1831352 55.66822795 -4.1854628 53.62280924 -4.18530273 51.57739258 C-4.18745443 48.50261861 -4.20549947 45.4282243 -4.22460938 42.35351562 C-4.25660468 31.13910469 -4.10638244 20.05339997 -2 9 C-1.67 8.67 -1.34 8.34 -1 8 C-0.76924918 6.65252916 -0.58846937 5.29622435 -0.4375 3.9375 C-0.2209375 1.9884375 -0.2209375 1.9884375 0 0 Z " fill="#F4CE6C" transform="translate(119,207)"/>
<path d="M0 0 C0 0.33 0 0.66 0 1 C-10.56 1 -21.12 1 -32 1 C-32 0.34 -32 -0.32 -32 -1 C-33.32 -1 -34.64 -1 -36 -1 C-36.33 -0.34 -36.66 0.32 -37 1 C-57.79 1.495 -57.79 1.495 -79 2 C-75.78832334 -1.21167666 -71.83285642 -0.76361559 -67.4375 -1.125 C-66.43605957 -1.2084668 -65.43461914 -1.29193359 -64.40283203 -1.37792969 C-42.98535199 -2.95819851 -21.30582423 -2.71473528 0 0 Z " fill="#DF776C" transform="translate(288,22)"/>
<path d="M0 0 C0.84119973 2.39957614 1.11193544 3.64922558 0.328125 6.10546875 C-0.02765625 6.79253906 -0.3834375 7.47960937 -0.75 8.1875 C-1.26820312 9.22970703 -1.26820312 9.22970703 -1.796875 10.29296875 C-3 12 -3 12 -6 13 C-6 13.99 -6 14.98 -6 16 C-5.01 15.34 -4.02 14.68 -3 14 C-3.11409593 15.45922693 -3.24165544 16.91740598 -3.375 18.375 C-3.44460937 19.18710938 -3.51421875 19.99921875 -3.5859375 20.8359375 C-4 23 -4 23 -6 25 C-5.34 25.33 -4.68 25.66 -4 26 C-4 26.99 -4 27.98 -4 29 C-4.66 29 -5.32 29 -6 29 C-6.33 29.99 -6.66 30.98 -7 32 C-9.38746118 30.39211798 -11.18450847 29.17308834 -13 27 C-13.55587404 17.36485001 -4.98910173 7.69213091 0 0 Z " fill="#EA4431" transform="translate(58,122)"/>
<path d="M0 0 C0.33 0.66 0.66 1.32 1 2 C1.66 2 2.32 2 3 2 C3 2.66 3 3.32 3 4 C1.42578125 5.515625 1.42578125 5.515625 -0.6875 7.25 C-4.23964603 10.25954469 -7.13970369 13.33524535 -10 17 C-12.9719385 15.87548273 -15.33440687 14.77706209 -18 13 C-18 12.34 -18 11.68 -18 11 C-18.7425 10.7525 -19.485 10.505 -20.25 10.25 C-23.20124062 8.90852699 -24.84814974 7.39094474 -27 5 C-25.35 4.67 -23.7 4.34 -22 4 C-21.9690625 4.8971875 -21.9690625 4.8971875 -21.9375 5.8125 C-21.09793992 8.39919054 -21.09793992 8.39919054 -17.625 9.8125 C-14.10227626 11.36511816 -14.10227626 11.36511816 -11 10 C-10.01 9.34 -9.02 8.68 -8 8 C-7.01 7.67 -6.02 7.34 -5 7 C-3.79117904 4.99983534 -3.79117904 4.99983534 -3 3 C-2.01 3 -1.02 3 0 3 C0 2.01 0 1.02 0 0 Z " fill="#DA6D62" transform="translate(346,129)"/>
<path d="M0 0 C0.33 0 0.66 0 1 0 C3.63303737 14.41779685 4.13756523 28.38751537 4 43 C3.01 43.495 3.01 43.495 2 44 C0.94654145 35.01875447 0.66328411 26.05066038 0.39453125 17.01757812 C0.33845703 15.34018555 0.33845703 15.34018555 0.28125 13.62890625 C0.25095703 12.61900635 0.22066406 11.60910645 0.18945312 10.56860352 C0.09697685 7.88161658 0.09697685 7.88161658 -1 5 C-0.5625 2.3125 -0.5625 2.3125 0 0 Z " fill="#739EE4" transform="translate(466,218)"/>
<path d="M0 0 C0.66 0 1.32 0 2 0 C2.33 0.99 2.66 1.98 3 3 C3.66 3 4.32 3 5 3 C3.56952311 8.10884605 1.28610306 12.01744261 -1.625 16.375 C-2.04523438 17.01566406 -2.46546875 17.65632813 -2.8984375 18.31640625 C-3.92629768 19.88155698 -4.96231886 21.44134314 -6 23 C-8 20 -8 20 -8 18 C-7.01 18 -6.02 18 -5 18 C-5 16.68 -5 15.36 -5 14 C-4.34 13.67 -3.68 13.34 -3 13 C-3.20625 11.9275 -3.4125 10.855 -3.625 9.75 C-3.9876191 6.12380904 -3.98362069 4.91708924 -2 2 C-1.34 2 -0.68 2 0 2 C0 1.34 0 0.68 0 0 Z " fill="#548DEE" transform="translate(436,366)"/>
<path d="M0 0 C4.56273224 0.1390777 9.12511691 0.28743634 13.6875 0.4375 C15.62786133 0.49647461 15.62786133 0.49647461 17.60742188 0.55664062 C18.85458984 0.59853516 20.10175781 0.64042969 21.38671875 0.68359375 C22.53358154 0.72025146 23.68044434 0.75690918 24.86206055 0.79467773 C27.68070148 0.9791076 30.24050205 1.43575761 33 2 C34.91042776 2.14156928 36.82395604 2.24474702 38.73828125 2.31640625 C39.80498047 2.35830078 40.87167969 2.40019531 41.97070312 2.44335938 C43.07349609 2.48267578 44.17628906 2.52199219 45.3125 2.5625 C46.99569336 2.62727539 46.99569336 2.62727539 48.71289062 2.69335938 C51.47514569 2.79914787 54.2374863 2.90123672 57 3 C57 3.33 57 3.66 57 4 C37.74670224 4.34609081 19.06955989 4.12697537 0 1 C0 0.67 0 0.34 0 0 Z " fill="#72BB89" transform="translate(209,476)"/>
<path d="M0 0 C1.32 0.33 2.64 0.66 4 1 C-3.3846641 9.12313051 -13.33486481 14.96862425 -23 20 C-23.66 20 -24.32 20 -25 20 C-25 19.01 -25 18.02 -25 17 C-21.77208445 14.8480563 -20.71599191 14.79913557 -17 15 C-17 14.01 -17 13.02 -17 12 C-13.535 11.505 -13.535 11.505 -10 11 C-9.67 10.01 -9.34 9.02 -9 8 C-6.9375 7.3125 -6.9375 7.3125 -5 7 C-5.66 5.68 -6.32 4.36 -7 3 C-2.25 1.875 -2.25 1.875 0 3 C0 2.01 0 1.02 0 0 Z " fill="#5EB276" transform="translate(384,432)"/>
<path d="M0 0 C0.66 0.99 1.32 1.98 2 3 C0.88625 3.2475 -0.2275 3.495 -1.375 3.75 C-4.99118496 4.5831662 -4.99118496 4.5831662 -6.1875 6.8125 C-6.455625 7.534375 -6.72375 8.25625 -7 9 C-9.35829958 12.22300942 -11.61032207 14.85320398 -15 17 C-15.66 17 -16.32 17 -17 17 C-17.33 17.99 -17.66 18.98 -18 20 C-21.5625 21.1875 -21.5625 21.1875 -25 22 C-23.33333333 20.33333333 -21.66666667 18.66666667 -20 17 C-19.113125 16.071875 -18.22625 15.14375 -17.3125 14.1875 C-15 12 -15 12 -13 12 C-12.79375 11.443125 -12.5875 10.88625 -12.375 10.3125 C-9.55628462 5.57193322 -4.72699831 2.64155788 0 0 Z " fill="#E07167" transform="translate(111,66)"/>
<path d="M0 0 C0.66 0.99 1.32 1.98 2 3 C0.71937515 4.7074998 -0.61767557 6.37373596 -2 8 C-2.66 8 -3.32 8 -4 8 C-4 8.66 -4 9.32 -4 10 C-5.64453125 11.65625 -5.64453125 11.65625 -7.8125 13.5 C-8.52019531 14.1084375 -9.22789062 14.716875 -9.95703125 15.34375 C-12 17 -12 17 -15 19 C-15.33 17.35 -15.66 15.7 -16 14 C-15.34 13.67 -14.68 13.34 -14 13 C-14.66 13 -15.32 13 -16 13 C-15.34 11.35 -14.68 9.7 -14 8 C-11.36 8.33 -8.72 8.66 -6 9 C-6 8.34 -6 7.68 -6 7 C-5.34 7 -4.68 7 -4 7 C-4 6.01 -4 5.02 -4 4 C-3.01 4 -2.02 4 -1 4 C-0.67 2.68 -0.34 1.36 0 0 Z " fill="#E55044" transform="translate(400,76)"/>
<path d="M0 0 C5.21881862 3.30866279 9.62237459 6.62237459 14 11 C16.60188668 12.78023825 19.27710974 14.4122104 22 16 C21.01 16.66 20.02 17.32 19 18 C19 17.34 19 16.68 19 16 C18.030625 15.87625 17.06125 15.7525 16.0625 15.625 C15.051875 15.41875 14.04125 15.2125 13 15 C12.67 14.34 12.34 13.68 12 13 C10.68 13.33 9.36 13.66 8 14 C8 13.01 8 12.02 8 11 C7.01 11 6.02 11 5 11 C5 9.68 5 8.36 5 7 C3.68 6.67 2.36 6.34 1 6 C0.67 4.02 0.34 2.04 0 0 Z " fill="#5BB373" transform="translate(155,346)"/>
<path d="M0 0 C1.7015625 0.433125 1.7015625 0.433125 3.4375 0.875 C17.39843664 3.94118702 31.76611944 4.44065412 46 5 C46 5.33 46 5.66 46 6 C36.1 6 26.2 6 16 6 C16 5.34 16 4.68 16 4 C15.26394531 4.02320313 14.52789062 4.04640625 13.76953125 4.0703125 C12.79371094 4.08835937 11.81789062 4.10640625 10.8125 4.125 C9.84957031 4.14820313 8.88664063 4.17140625 7.89453125 4.1953125 C4.87187222 3.9913544 2.73230015 3.26874632 0 2 C0 1.34 0 0.68 0 0 Z " fill="#77BF8B" transform="translate(211,379)"/>
<path d="M0 0 C0.33 1.32 0.66 2.64 1 4 C0.34 4 -0.32 4 -1 4 C-1.3403125 4.8971875 -1.3403125 4.8971875 -1.6875 5.8125 C-3 8 -3 8 -5.5 9.375 C-8.73160345 11.47554224 -9.10536636 13.34013513 -10 17 C-12.64 16.34 -15.28 15.68 -18 15 C-15.49000892 12.84857907 -13.42919652 11.15970103 -10.3125 10 C-7.40626848 8.74325124 -7.35112342 7.7817247 -6 5 C-4.0900441 3.19300668 -2.07465201 1.6236407 0 0 Z " fill="#739CE4" transform="translate(342,351)"/>
<path d="M0 0 C5.25431363 -0.30907727 7.6022077 0.30135473 12 3 C13.82387363 3.51400075 15.65880075 3.98950767 17.5 4.4375 C21.84734437 5.54046996 24.75954623 6.75954623 28 10 C21.56176532 9.4374358 16.0440213 7.30475962 10.0625 4.9375 C9.09248047 4.56044922 8.12246094 4.18339844 7.12304688 3.79492188 C4.74602857 2.86987534 2.37188683 1.93810818 0 1 C0 0.67 0 0.34 0 0 Z " fill="#6EB483" transform="translate(159,461)"/>
<path d="M0 0 C3.375 0.25 3.375 0.25 7 1 C8.94241961 3.5335908 9 4.78187214 9 8 C9.99 8 10.98 8 12 8 C12.103125 8.639375 12.20625 9.27875 12.3125 9.9375 C12.539375 10.618125 12.76625 11.29875 13 12 C13.99 12.33 14.98 12.66 16 13 C15.67 13.99 15.34 14.98 15 16 C3.40885732 6.279474 3.40885732 6.279474 0 0 Z " fill="#5DB277" transform="translate(70,394)"/>
<path d="M0 0 C5.04523873 1.29064247 7.45256149 3.26080805 11 7 C11.99 7.33 12.98 7.66 14 8 C14 8.66 14 9.32 14 10 C14.56589844 10.24492187 15.13179687 10.48984375 15.71484375 10.7421875 C19.26956807 12.69880499 21.94820441 15.54281767 24.87890625 18.3203125 C26.94104204 20.31040694 26.94104204 20.31040694 30 20 C29.67 20.66 29.34 21.32 29 22 C24.9776622 21.45318449 23.0089352 19.43217976 20.125 16.6875 C16.56977612 13.39178152 13.09223444 10.61206454 9 8 C5.947182 5.7343549 2.90190309 3.45694462 0 1 C0 0.67 0 0.34 0 0 Z " fill="#E05B24" transform="translate(93,185)"/>
<path d="M0 0 C0 0.33 0 0.66 0 1 C-2.31 1 -4.62 1 -7 1 C-7.33 2.65 -7.66 4.3 -8 6 C-9.32 5.67 -10.64 5.34 -12 5 C-12 4.34 -12 3.68 -12 3 C-12.763125 3.20625 -13.52625 3.4125 -14.3125 3.625 C-19.42352989 4.14476575 -24.00953311 3.07445995 -29 2 C-29 1.67 -29 1.34 -29 1 C-9.03189066 -0.14806378 -9.03189066 -0.14806378 0 0 Z " fill="#43A45D" transform="translate(267,384)"/>
<path d="M0 0 C1.9375 0.8125 1.9375 0.8125 4 2 C4.33 2.99 4.66 3.98 5 5 C5.99 5.33 6.98 5.66 8 6 C8.12375 6.61875 8.2475 7.2375 8.375 7.875 C8.81558566 10.27708652 8.81558566 10.27708652 11.5 11.4375 C14 13 14 13 14.9375 15.5625 C14.958125 16.366875 14.97875 17.17125 15 18 C14.34 18.66 13.68 19.32 13 20 C11.9944239 18.54550599 10.99569565 17.08627557 10 15.625 C9.443125 14.81289063 8.88625 14.00078125 8.3125 13.1640625 C7 11 7 11 7 9 C6.34 9 5.68 9 5 9 C3.7109375 7.28515625 3.7109375 7.28515625 2.375 5.0625 C1.92898437 4.33160156 1.48296875 3.60070312 1.0234375 2.84765625 C0 1 0 1 0 0 Z " fill="#5BA974" transform="translate(56,374)"/>
<path d="M0 0 C0.66 0 1.32 0 2 0 C3.66666667 6.66666667 5.33333333 13.33333333 7 20 C5.35 20.99 3.7 21.98 2 23 C1.67 21.35 1.34 19.7 1 18 C1.66 18 2.32 18 3 18 C2.69240822 16.02006459 2.3787932 14.04106401 2.0625 12.0625 C1.88847656 10.96035156 1.71445313 9.85820312 1.53515625 8.72265625 C1.28154864 6.09573071 1.28154864 6.09573071 0 5 C-0.04063832 3.33382885 -0.042721 1.66611905 0 0 Z " fill="#EFC43A" transform="translate(115,272)"/>
<path d="M0 0 C0.33 0.99 0.66 1.98 1 3 C1.66 3 2.32 3 3 3 C3.33 10.59 3.66 18.18 4 26 C-0.94953972 18.57569041 -0.27045976 8.6096356 0 0 Z " fill="#F2C84E" transform="translate(22,275)"/>
<path d="M0 0 C4.6393176 1.63952583 8.63855858 4.06871052 12.8125 6.625 C13.50537109 7.04523437 14.19824219 7.46546875 14.91210938 7.8984375 C16.61010748 8.9289467 18.30533614 9.96401681 20 11 C15.77059037 12.40980321 13.91820881 10.92473415 10 9 C9.29875 8.46375 8.5975 7.9275 7.875 7.375 C5.62122847 5.72223421 3.74077726 5.38066351 1 5 C0.67 3.35 0.34 1.7 0 0 Z " fill="#DE665D" transform="translate(362,50)"/>
<path d="M0 0 C2.97 0.99 5.94 1.98 9 3 C6.71625089 5.28374911 4.47001121 6.47452482 1.625 8 C0.66851562 8.515625 -0.28796875 9.03125 -1.2734375 9.5625 C-3.5026988 10.73781255 -5.73970508 11.88592099 -8 13 C-8 12.01 -8 11.02 -8 10 C-5.35261084 8.5393715 -4.10551666 8 -1 8 C-1.33 6.68 -1.66 5.36 -2 4 C-1.01 4.33 -0.02 4.66 1 5 C1 4.01 1 3.02 1 2 C0.34 1.67 -0.32 1.34 -1 1 C-0.67 0.67 -0.34 0.34 0 0 Z " fill="#E46057" transform="translate(178,128)"/>
<path d="M0 0 C0.33 0.66 0.66 1.32 1 2 C1.66 2 2.32 2 3 2 C3 4 3 4 1.390625 5.62109375 C0.33101563 6.52021484 0.33101563 6.52021484 -0.75 7.4375 C-1.44609375 8.03433594 -2.1421875 8.63117188 -2.859375 9.24609375 C-4.86673589 10.89081098 -6.91070312 12.46126108 -9 14 C-9 13.01 -9 12.02 -9 11 C-9.66 10.67 -10.32 10.34 -11 10 C-8 8 -8 8 -5 7 C-3.79117904 4.99983534 -3.79117904 4.99983534 -3 3 C-2.01 3 -1.02 3 0 3 C0 2.01 0 1.02 0 0 Z " fill="#E3675C" transform="translate(346,129)"/>
<path d="M0 0 C0.84119973 2.39957614 1.11193544 3.64922558 0.328125 6.10546875 C-0.02765625 6.79253906 -0.3834375 7.47960937 -0.75 8.1875 C-1.26820312 9.22970703 -1.26820312 9.22970703 -1.796875 10.29296875 C-3 12 -3 12 -6 13 C-6.33 14.65 -6.66 16.3 -7 18 C-7.66 18 -8.32 18 -9 18 C-9 18.66 -9 19.32 -9 20 C-9.66 20 -10.32 20 -11 20 C-9.60244576 16.31553882 -7.95204714 12.89445774 -6.0625 9.4375 C-5.30646484 8.04337891 -5.30646484 8.04337891 -4.53515625 6.62109375 C-3.15712111 4.26826531 -1.68592319 2.13885778 0 0 Z " fill="#E17068" transform="translate(58,122)"/>
<path d="M0 0 C5.61603378 -0.45845174 9.3007078 -0.30279673 14.16015625 2.91015625 C17.51668881 4.89842076 21.27994841 5.88651517 25 7 C25 7.99 25 8.98 25 10 C24.34128906 9.731875 23.68257813 9.46375 23.00390625 9.1875 C18.62749057 7.4574215 14.21081989 5.8372117 9.79492188 4.2109375 C6.43762137 2.96258914 3.15479043 1.70440626 0 0 Z " fill="#E07670" transform="translate(283,119)"/>
<path d="M0 0 C1.65 0 3.3 0 5 0 C5 0.66 5 1.32 5 2 C4.34 2 3.68 2 3 2 C3 2.66 3 3.32 3 4 C2.34 4 1.68 4 1 4 C1 4.66 1 5.32 1 6 C-0.71484375 7.7265625 -0.71484375 7.7265625 -2.9375 9.625 C-3.66839844 10.25664063 -4.39929688 10.88828125 -5.15234375 11.5390625 C-7 13 -7 13 -8 13 C-8.36458333 8.50347222 -8.36458333 8.50347222 -6.6875 6.1875 C-5 5 -5 5 -2 5 C-2 4.34 -2 3.68 -2 3 C-1.01 3 -0.02 3 1 3 C0.67 2.01 0.34 1.02 0 0 Z " fill="#E26E5F" transform="translate(363,112)"/>
<path d="M0 0 C1.60080151 4.00200378 0.29279692 7.04556236 -1 11 C-1.66 11 -2.32 11 -3 11 C-3.20496094 11.62648437 -3.40992188 12.25296875 -3.62109375 12.8984375 C-3.89050781 13.71570313 -4.15992188 14.53296875 -4.4375 15.375 C-4.70433594 16.18710938 -4.97117187 16.99921875 -5.24609375 17.8359375 C-6 20 -6 20 -7 22 C-7.66 22 -8.32 22 -9 22 C-2.97560976 2.97560976 -2.97560976 2.97560976 0 0 Z " fill="#F0C55E" transform="translate(44,146)"/>
<path d="M0 0 C2 3 2 3 1.5625 5.375 C-0.5216903 8.87643971 -3.24882187 11.33808564 -7 13 C-9.2265625 12.6328125 -9.2265625 12.6328125 -11 12 C-10.34 12 -9.68 12 -9 12 C-9 11.34 -9 10.68 -9 10 C-8.34 10 -7.68 10 -7 10 C-6.773125 9.46375 -6.54625 8.9275 -6.3125 8.375 C-4.56617944 5.21499137 -2.3597151 2.7323017 0 0 Z " fill="#E16C62" transform="translate(85,88)"/>
<path d="M0 0 C-0.33 0.99 -0.66 1.98 -1 3 C-2.32 3 -3.64 3 -5 3 C-5.33 3.66 -5.66 4.32 -6 5 C-10.64905587 7.54948225 -15.81600584 7.61749169 -21 8 C-17.61015223 5.10291206 -14.12492504 3.77875924 -9.9375 2.3125 C-8.70902344 1.87550781 -7.48054687 1.43851563 -6.21484375 0.98828125 C-3 0 -3 0 0 0 Z " fill="#DE5D55" transform="translate(183,30)"/>
<path d="M0 0 C0.66 0.33 1.32 0.66 2 1 C1.01 1.33 0.02 1.66 -1 2 C-1.061875 2.7425 -1.12375 3.485 -1.1875 4.25 C-2.28586565 7.96754528 -3.71208701 8.99866166 -7 11 C-10.8125 11.75 -10.8125 11.75 -14 12 C-12.22113307 8.44226614 -8.63795695 7.21265232 -5 6 C-5 5.34 -5 4.68 -5 4 C-4.34 4 -3.68 4 -3 4 C-2.67 3.01 -2.34 2.02 -2 1 C-1.34 0.67 -0.68 0.34 0 0 Z " fill="#6AAA37" transform="translate(91,314)"/>
<path d="M0 0 C0.66 0.33 1.32 0.66 2 1 C0.02 1.99 0.02 1.99 -2 3 C-2 3.99 -2 4.98 -2 6 C-2.99 6.495 -2.99 6.495 -4 7 C-4 7.66 -4 8.32 -4 9 C-5.65 9 -7.3 9 -9 9 C-9 9.66 -9 10.32 -9 11 C-10.98 11.66 -12.96 12.32 -15 13 C-10.61251614 7.3750207 -6.08867157 3.69379408 0 0 Z " fill="#5AA635" transform="translate(112,299)"/>
<path d="M0 0 C2.32261577 1.46691522 4.01448166 3.06290894 6 5 C2.25 6.125 2.25 6.125 0 5 C0 4.01 0 3.02 0 2 C-1.85625 2.5259375 -1.85625 2.5259375 -3.75 3.0625 C-6.903292 3.95593273 -8.86774164 4.00881294 -12 3 C-7.90519087 0.021957 -5.03458041 -0.70660778 0 0 Z " fill="#409E89" transform="translate(329,366)"/>
<path d="M0 0 C4.52117271 1.2330471 6.82083644 2.61572912 10 6 C11.2065625 6.680625 11.2065625 6.680625 12.4375 7.375 C15.75001279 9.47561787 17.59706294 11.91050949 20 15 C17.45828796 13.82690214 15.27116256 12.5091503 12.9375 10.9375 C10.1164266 8.89527457 10.1164266 8.89527457 7 8 C4 4.55555556 4 4.55555556 4 2 C2.68 2 1.36 2 0 2 C0 1.34 0 0.68 0 0 Z " fill="#3D91B8" transform="translate(358,390)"/>
<path d="M0 0 C0.33 0 0.66 0 1 0 C1 2.64 1 5.28 1 8 C0.34 8 -0.32 8 -1 8 C-1 9.98 -1 11.96 -1 14 C-1.66 14 -2.32 14 -3 14 C-3.12375 14.598125 -3.2475 15.19625 -3.375 15.8125 C-4 18 -4 18 -6 21 C-5.42381249 15.85404946 -4.25256722 11.44921945 -2.4375 6.5625 C-1.98246094 5.32628906 -1.52742188 4.09007812 -1.05859375 2.81640625 C-0.70925781 1.88699219 -0.35992187 0.95757812 0 0 Z " fill="#F4CE5F" transform="translate(34,169)"/>
<path d="M0 0 C6.54955571 1.48291827 12.72318367 3.62311735 19 6 C19 6.33 19 6.66 19 7 C17.41590006 6.88512252 15.83271037 6.75765492 14.25 6.625 C13.36828125 6.55539063 12.4865625 6.48578125 11.578125 6.4140625 C8.98564521 5.99769453 7.31596149 5.17696403 5 4 C2.66796188 3.9222654 0.33160941 3.91032272 -2 4 C-1.34 2.68 -0.68 1.36 0 0 Z " fill="#E06F6A" transform="translate(322,32)"/>
<path d="M0 0 C2.97 0.495 2.97 0.495 6 1 C6 1.66 6 2.32 6 3 C8.64 3 11.28 3 14 3 C14 3.66 14 4.32 14 5 C14.66 5.66 15.32 6.32 16 7 C16 7.66 16 8.32 16 9 C12.50376447 7.64175023 9.11682003 6.15316912 5.75 4.5 C4.44289062 3.86578125 4.44289062 3.86578125 3.109375 3.21875 C1 2 1 2 0 0 Z " fill="#7CBD92" transform="translate(135,449)"/>
<path d="M0 0 C0.33 0.99 0.66 1.98 1 3 C1.66 3 2.32 3 3 3 C5.13391403 9.25948114 5.58955515 15.42208127 6 22 C3.80797954 18.71196932 2.95741384 15.91745739 1.875 12.125 C1.52179687 10.91070312 1.16859375 9.69640625 0.8046875 8.4453125 C0.10646965 5.4558555 -0.1736106 3.04397245 0 0 Z " fill="#F1C953" transform="translate(26,301)"/>
<path d="M0 0 C0.66386719 0.15597656 1.32773437 0.31195313 2.01171875 0.47265625 C2.89472656 0.66730469 3.77773438 0.86195313 4.6875 1.0625 C5.99267578 1.35833984 5.99267578 1.35833984 7.32421875 1.66015625 C10.17452911 2.02216647 12.22705181 1.6755223 15 1 C15.66 1 16.32 1 17 1 C17.33 2.32 17.66 3.64 18 5 C15.525 4.505 15.525 4.505 13 4 C12.67 4.66 12.34 5.32 12 6 C10.18447022 5.38385645 8.3726347 4.75681772 6.5625 4.125 C5.55316406 3.77695313 4.54382813 3.42890625 3.50390625 3.0703125 C1 2 1 2 0 0 Z " fill="#E54232" transform="translate(309,129)"/>
<path d="M0 0 C0.66 0.33 1.32 0.66 2 1 C0.60970863 5.17087411 -2.27843718 6.18208698 -5.9375 8.1875 C-6.58396484 8.55552734 -7.23042969 8.92355469 -7.89648438 9.30273438 C-12.71553224 12 -12.71553224 12 -15 12 C-15 11.01 -15 10.02 -15 9 C-11.77208445 6.8480563 -10.71599191 6.79913557 -7 7 C-7 6.01 -7 5.02 -7 4 C-3.535 3.505 -3.535 3.505 0 3 C0 2.01 0 1.02 0 0 Z " fill="#7CB98B" transform="translate(374,440)"/>
<path d="M0 0 C2.97 0.495 2.97 0.495 6 1 C4.90073597 2.77388086 3.79539498 4.54399684 2.6875 6.3125 C1.76517578 7.79169922 1.76517578 7.79169922 0.82421875 9.30078125 C-0.66324661 11.50172035 -2.0403386 13.23328988 -4 15 C-3.67 12.69 -3.34 10.38 -3 8 C-2.01 8 -1.02 8 0 8 C0 5.36 0 2.72 0 0 Z " fill="#DE6055" transform="translate(140,163)"/>
<path d="M0 0 C1.32 0 2.64 0 4 0 C3.9375 2.1875 3.9375 2.1875 3 5 C0.8282781 6.93157957 -1.52601047 8.48201687 -4 10 C-4.33 8.68 -4.66 7.36 -5 6 C-4.01 6 -3.02 6 -2 6 C-1.7834375 5.071875 -1.7834375 5.071875 -1.5625 4.125 C-1 2 -1 2 0 0 Z " fill="#58AF73" transform="translate(395,421)"/>
<path d="M0 0 C6.9242828 4.52567504 13.2098741 9.04444193 19 15 C16.21956663 13.65021467 13.56599415 12.18821603 10.9375 10.5625 C9.93009766 9.94568359 9.93009766 9.94568359 8.90234375 9.31640625 C7 8 7 8 5.44140625 6.40234375 C3.94020935 4.73846618 3.94020935 4.73846618 1 4 C0.3125 1.9375 0.3125 1.9375 0 0 Z " fill="#FCA420" transform="translate(92,185)"/>
<path d="M0 0 C0.99 0 1.98 0 3 0 C1.76583013 6.82423338 0.1084005 13.39367844 -2 20 C-3.36088895 15.91733314 -2.68398693 13.24071899 -2 9 C-1.67 8.67 -1.34 8.34 -1 8 C-0.76924918 6.65252916 -0.58846937 5.29622435 -0.4375 3.9375 C-0.2209375 1.9884375 -0.2209375 1.9884375 0 0 Z " fill="#EFC24B" transform="translate(119,207)"/>
<path d="M0 0 C0 0.66 0 1.32 0 2 C-1.32 2.33 -2.64 2.66 -4 3 C-4 3.66 -4 4.32 -4 5 C-8.72314313 5.77112541 -13.21521178 6.09764874 -18 6 C-18 5.67 -18 5.34 -18 5 C-17.01257813 4.72285156 -16.02515625 4.44570313 -15.0078125 4.16015625 C-13.71351203 3.79437568 -12.41924281 3.42848451 -11.125 3.0625 C-10.47402344 2.88009766 -9.82304687 2.69769531 -9.15234375 2.50976562 C-0.29971591 0 -0.29971591 0 0 0 Z " fill="#70B887" transform="translate(305,375)"/>
<path d="M0 0 C-2.05233685 2.2477975 -3.00667261 3.0022242 -6 4 C-6.639375 4.804375 -7.27875 5.60875 -7.9375 6.4375 C-9.91391935 8.89305131 -11.12464744 9.87039721 -14 11 C-13.67 9.35 -13.34 7.7 -13 6 C-11.68 5.67 -10.36 5.34 -9 5 C-8.95875 4.38125 -8.9175 3.7625 -8.875 3.125 C-8 1 -8 1 -5.0625 -0.3125 C-2 -1 -2 -1 0 0 Z " fill="#DFC01C" transform="translate(84,321)"/>
<path d="M0 0 C4.60726548 2.59158683 8.93027462 5.62707624 13 9 C13 9.33 13 9.66 13 10 C10.69 9.67 8.38 9.34 6 9 C5.34 7.35 4.68 5.7 4 4 C3.01 4 2.02 4 1 4 C0.67 2.68 0.34 1.36 0 0 Z " fill="#FDAF16" transform="translate(76,173)"/>
<path d="M0 0 C0.66 0.99 1.32 1.98 2 3 C0.71937515 4.7074998 -0.61767557 6.37373596 -2 8 C-2.66 8 -3.32 8 -4 8 C-4 8.66 -4 9.32 -4 10 C-6.5 11.625 -6.5 11.625 -9 13 C-9 11.68 -9 10.36 -9 9 C-8.01 9 -7.02 9 -6 9 C-6 8.34 -6 7.68 -6 7 C-5.34 7 -4.68 7 -4 7 C-4 6.01 -4 5.02 -4 4 C-3.01 4 -2.02 4 -1 4 C-0.67 2.68 -0.34 1.36 0 0 Z " fill="#DF7F79" transform="translate(400,76)"/>
<path d="M0 0 C3.79049707 1.42749981 7.27122456 3.16236542 10.8125 5.125 C12.27623047 5.93324219 12.27623047 5.93324219 13.76953125 6.7578125 C14.50558594 7.16773438 15.24164063 7.57765625 16 8 C15.34 8.66 14.68 9.32 14 10 C14 9.34 14 8.68 14 8 C13.05125 7.855625 12.1025 7.71125 11.125 7.5625 C8 7 8 7 6 6 C6 5.34 6 4.68 6 4 C4.68 4 3.36 4 2 4 C2 3.34 2 2.68 2 2 C1.34 2 0.68 2 0 2 C0 1.34 0 0.68 0 0 Z " fill="#DF7872" transform="translate(346,41)"/>
<path d="M0 0 C1.98 0 3.96 0 6 0 C6 0.66 6 1.32 6 2 C11.94 2.99 11.94 2.99 18 4 C18 4.33 18 4.66 18 5 C11.58518742 5.42765417 6.11404596 3.85743168 0 2 C0 1.34 0 0.68 0 0 Z " fill="#69B07C" transform="translate(191,471)"/>
<path d="M0 0 C1.2065625 0.0309375 1.2065625 0.0309375 2.4375 0.0625 C2.7675 0.7225 3.0975 1.3825 3.4375 2.0625 C-1.8425 3.3825 -7.1225 4.7025 -12.5625 6.0625 C-12.2325 5.0725 -11.9025 4.0825 -11.5625 3.0625 C-9.75 2.3671875 -9.75 2.3671875 -7.5625 1.9375 C-4.7028541 1.3553578 -2.78225069 0.06785977 0 0 Z " fill="#64B67A" transform="translate(316.5625,467.9375)"/>
<path d="M0 0 C0.99 0.33 1.98 0.66 3 1 C2.34 2.98 1.68 4.96 1 7 C-1.64 6.34 -4.28 5.68 -7 5 C-2.25 1.125 -2.25 1.125 0 0 Z " fill="#5C97E1" transform="translate(331,361)"/>
<path d="M0 0 C1.03526844 3.31756479 1.03187431 6.10953974 0.75 9.5625 C0.68296875 10.51253906 0.6159375 11.46257812 0.546875 12.44140625 C-0.05649913 15.2643352 -0.77903396 16.22680937 -3 18 C-3.42765417 11.58518742 -1.85743168 6.11404596 0 0 Z " fill="#F2CD59" transform="translate(27,191)"/>
<path d="M0 0 C1.8871875 0.061875 1.8871875 0.061875 3.8125 0.125 C0.96747903 2.02168064 -1.76049885 3.35763478 -4.875 4.75 C-5.86886719 5.19601563 -6.86273438 5.64203125 -7.88671875 6.1015625 C-8.64597656 6.43929687 -9.40523437 6.77703125 -10.1875 7.125 C-10.5175 6.135 -10.8475 5.145 -11.1875 4.125 C-9.8675 4.125 -8.5475 4.125 -7.1875 4.125 C-7.1875 3.465 -7.1875 2.805 -7.1875 2.125 C-4.09861478 0.06574319 -3.47814073 -0.1140374 0 0 Z " fill="#DE6B62" transform="translate(200.1875,122.875)"/>
<path d="M0 0 C5 1.66666667 10 3.33333333 15 5 C15 5.33 15 5.66 15 6 C9.36202751 6.34518199 5.88760013 5.63930407 1 3 C0.67 2.01 0.34 1.02 0 0 Z " fill="#6FB981" transform="translate(195,373)"/>
<path d="M0 0 C0.66 0 1.32 0 2 0 C2 1.65 2 3.3 2 5 C2.99 5 3.98 5 5 5 C5.12375 5.804375 5.2475 6.60875 5.375 7.4375 C5.684375 8.7059375 5.684375 8.7059375 6 10 C6.66 10.33 7.32 10.66 8 11 C7.34 12.32 6.68 13.64 6 15 C0.44419134 5.77448747 0.44419134 5.77448747 0 0 Z " fill="#E1CB5D" transform="translate(38,339)"/>
<path d="M0 0 C0.66 0 1.32 0 2 0 C2 1.65 2 3.3 2 5 C1.01 5.33 0.02 5.66 -1 6 C-1.33 7.65 -1.66 9.3 -2 11 C-2.99 11.33 -3.98 11.66 -5 12 C-3.68938409 7.76570244 -2.05643741 3.92592596 0 0 Z " fill="#6BA0E4" transform="translate(365,318)"/>
<path d="M0 0 C0 0.33 0 0.66 0 1 C-6.70019789 1.70132913 -13.26257354 2.11044961 -20 2 C-20 1.34 -20 0.68 -20 0 C-13.16920852 -1.18225237 -6.87368733 -0.74464946 0 0 Z " fill="#88C69A" transform="translate(287,477)"/>
<path d="M0 0 C5.3732231 2.47994912 9.97062369 5.66067166 14 10 C13.67 10.99 13.34 11.98 13 13 C12.29875 12.071875 11.5975 11.14375 10.875 10.1875 C8.31047382 7.0676918 5.62445972 5.77195809 2 4 C0.625 1.8125 0.625 1.8125 0 0 Z " fill="#3B95A3" transform="translate(384,410)"/>
<path d="M0 0 C-1.27007214 0.9593419 -2.54108919 1.91743294 -3.8125 2.875 C-4.87404297 3.67550781 -4.87404297 3.67550781 -5.95703125 4.4921875 C-7.60456297 5.70814781 -9.29624211 6.86416141 -11 8 C-10.67 6.35 -10.34 4.7 -10 3 C-9.34 3 -8.68 3 -8 3 C-7.67 2.01 -7.34 1.02 -7 0 C-4.05610218 -1.17755913 -3.10046087 -1.03348696 0 0 Z " fill="#E2766D" transform="translate(164,148)"/>
<path d="M0 0 C0.33 0.66 0.66 1.32 1 2 C0.0625 4.125 0.0625 4.125 -1 6 C-1.66 6 -2.32 6 -3 6 C-3.99 7.485 -3.99 7.485 -5 9 C-7.125 9.6875 -7.125 9.6875 -9 10 C-8.67 8.68 -8.34 7.36 -8 6 C-7.01 6 -6.02 6 -5 6 C-5 5.34 -5 4.68 -5 4 C-3.37373596 2.61767557 -1.7074998 1.28062485 0 0 Z " fill="#E25345" transform="translate(54,136)"/>
<path d="M0 0 C0.66 1.32 1.32 2.64 2 4 C2.53625 4.845625 3.0725 5.69125 3.625 6.5625 C5 9 5 9 5 12 C3.35 12 1.7 12 0 12 C0 8.04 0 4.08 0 0 Z " fill="#5DB077" transform="translate(124,298)"/>
<path d="M0 0 C4.93054827 2.71683272 9.46284362 5.66657898 14 9 C13.01 9.495 13.01 9.495 12 10 C6.82271556 8.24167698 3.60291279 6.25798784 0 2 C0 1.34 0 0.68 0 0 Z " fill="#FEA521" transform="translate(53,156)"/>
<path d="M0 0 C1.32 0 2.64 0 4 0 C4 0.66 4 1.32 4 2 C2.25 3.5078125 2.25 3.5078125 0 5.125 C-0.7425 5.66382812 -1.485 6.20265625 -2.25 6.7578125 C-2.8275 7.16773437 -3.405 7.57765625 -4 8 C-4 6.35 -4 4.7 -4 3 C-2.68 2.67 -1.36 2.34 0 2 C0 1.34 0 0.68 0 0 Z " fill="#DF7268" transform="translate(377,99)"/>
<path d="M0 0 C1.051875 0.495 1.051875 0.495 2.125 1 C5.26003116 2.09044562 7.70563182 2.15322643 11 2 C11 3.65 11 5.3 11 7 C7.41584854 7 6.58796261 6.21108216 3.8125 4.0625 C3.09707031 3.51722656 2.38164063 2.97195313 1.64453125 2.41015625 C1.10183594 1.94480469 0.55914062 1.47945313 0 1 C0 0.67 0 0.34 0 0 Z " fill="#6BB681" transform="translate(107,430)"/>
<path d="M0 0 C2.875 0.625 2.875 0.625 6 2 C7.375 5.125 7.375 5.125 8 8 C7.34 8.66 6.68 9.32 6 10 C4.02 6.7 2.04 3.4 0 0 Z " fill="#67B579" transform="translate(63,384)"/>
<path d="M0 0 C0.66 0.66 1.32 1.32 2 2 C1.67582137 5.80909895 1.14418558 7.78372163 -1 11 C-1.66 11 -2.32 11 -3 11 C-2.01 7.37 -1.02 3.74 0 0 Z " fill="#6E9DE4" transform="translate(370,303)"/>
<path d="M0 0 C0 0.99 0 1.98 0 3 C-1.43011973 3.86646667 -2.86940619 4.71781829 -4.3125 5.5625 C-5.51326172 6.27599609 -5.51326172 6.27599609 -6.73828125 7.00390625 C-9 8 -9 8 -12 7 C-10.37554381 6.01993141 -8.75041739 5.04097364 -7.125 4.0625 C-6.22007813 3.51722656 -5.31515625 2.97195312 -4.3828125 2.41015625 C-2.94798364 1.56101983 -1.49124552 0.74562276 0 0 Z " fill="#DB746A" transform="translate(132,52)"/>
<path d="M0 0 C0 0.99 0 1.98 0 3 C0.639375 3.268125 1.27875 3.53625 1.9375 3.8125 C4 5 4 5 5 8 C4.34 8 3.68 8 3 8 C3 7.34 3 6.68 3 6 C2.2575 5.7525 1.515 5.505 0.75 5.25 C-2.20124062 3.90852699 -3.84814974 2.39094474 -6 0 C-3 -1 -3 -1 0 0 Z " fill="#E27870" transform="translate(325,134)"/>
<path d="M0 0 C-1.3697164 3.99500618 -3.25722422 6.80009492 -6 10 C-6.33 8.35 -6.66 6.7 -7 5 C-6.01 5 -5.02 5 -4 5 C-4 3.68 -4 2.36 -4 1 C-2 0 -2 0 0 0 Z " fill="#739CE8" transform="translate(435,379)"/>
<path d="M0 0 C2.52349243 3.12432397 4.27256146 6.38060496 6 10 C5.01 10.495 5.01 10.495 4 11 C4 10.34 4 9.68 4 9 C3.01 9 2.02 9 1 9 C0.67 6.03 0.34 3.06 0 0 Z " fill="#70BA89" transform="translate(132,315)"/>
<path d="M0 0 C0.33 1.32 0.66 2.64 1 4 C0.34 4 -0.32 4 -1 4 C-1.33 5.65 -1.66 7.3 -2 9 C-2.66 9 -3.32 9 -4 9 C-4.33 9.66 -4.66 10.32 -5 11 C-5 6.86356447 -4.84767359 6.30197567 -2.5 3.25 C-2.0359375 2.63640625 -1.571875 2.0228125 -1.09375 1.390625 C-0.55234375 0.70226562 -0.55234375 0.70226562 0 0 Z " fill="#DF6D64" transform="translate(65,112)"/>
<path d="M0 0 C-3.01490557 2.00993705 -5.2149927 2.72623341 -8.6875 3.625 C-10.17830078 4.01558594 -10.17830078 4.01558594 -11.69921875 4.4140625 C-12.45847656 4.60742188 -13.21773437 4.80078125 -14 5 C-13.67 4.01 -13.34 3.02 -13 2 C-8.56971812 0.34950283 -4.70949382 -0.22973141 0 0 Z " fill="#E2847C" transform="translate(220,118)"/>
<path d="M0 0 C0.33 0 0.66 0 1 0 C1 1.65 1 3.3 1 5 C1.66 5 2.32 5 3 5 C2.42655063 7.86724686 2.1385485 8.8614515 0 11 C-2.21538462 4.6 -2.21538462 4.6 -1.125 1.5625 C-0.75375 1.046875 -0.3825 0.53125 0 0 Z " fill="#5D98E9" transform="translate(423,387)"/>
<path d="M0 0 C1.65 0 3.3 0 5 0 C5.99 1.98 6.98 3.96 8 6 C5.0280615 4.87548273 2.66559313 3.77706209 0 2 C0 1.34 0 0.68 0 0 Z " fill="#3C90C3" transform="translate(335,372)"/>
<path d="M0 0 C4.455 2.97 4.455 2.97 9 6 C8.67 6.66 8.34 7.32 8 8 C5.69 7.34 3.38 6.68 1 6 C0.67 4.02 0.34 2.04 0 0 Z " fill="#6AB582" transform="translate(155,346)"/>
<path d="M0 0 C0.66 0.66 1.32 1.32 2 2 C0.68 3.65 -0.64 5.3 -2 7 C-1.01 8.485 -1.01 8.485 0 10 C-1.9375 9.25 -1.9375 9.25 -4 8 C-4.75 5.875 -4.75 5.875 -5 4 C-4.360625 3.71125 -3.72125 3.4225 -3.0625 3.125 C-0.84793921 2.17176549 -0.84793921 2.17176549 0 0 Z " fill="#DF502F" transform="translate(50,142)"/>
<path d="M0 0 C-6.07439825 4.90153173 -6.07439825 4.90153173 -9.9375 5.3125 C-10.618125 5.209375 -11.29875 5.10625 -12 5 C-3.89473684 -1.94736842 -3.89473684 -1.94736842 0 0 Z " fill="#DB6E66" transform="translate(154,42)"/>
<path d="M0 0 C0.66 0 1.32 0 2 0 C1.33501617 4.38889325 -0.18757677 7.9811485 -2 12 C-2.33 12 -2.66 12 -3 12 C-3 10.35 -3 8.7 -3 7 C-2.34 7 -1.68 7 -1 7 C-1.020625 6.030625 -1.04125 5.06125 -1.0625 4.0625 C-1 1 -1 1 0 0 Z " fill="#6D9DE1" transform="translate(452,340)"/>
<path d="M0 0 C1.65 0 3.3 0 5 0 C5 0.66 5 1.32 5 2 C4.34 2 3.68 2 3 2 C3 2.66 3 3.32 3 4 C2.34 4 1.68 4 1 4 C1 4.66 1 5.32 1 6 C0.01 6.33 -0.98 6.66 -2 7 C-2 5.68 -2 4.36 -2 3 C-1.01 3 -0.02 3 1 3 C0.67 2.01 0.34 1.02 0 0 Z " fill="#E1776F" transform="translate(363,112)"/>
<path d="M0 0 C0.66 0.33 1.32 0.66 2 1 C1.02433888 2.16959987 0.044375 3.33561177 -0.9375 4.5 C-1.48277344 5.1496875 -2.02804687 5.799375 -2.58984375 6.46875 C-3.05519531 6.9740625 -3.52054687 7.479375 -4 8 C-4.33 8 -4.66 8 -5 8 C-5 6.02 -5 4.04 -5 2 C-2.625 0.9375 -2.625 0.9375 0 0 Z " fill="#7EABEC" transform="translate(419,400)"/>
<path d="M0 0 C0.66 0.33 1.32 0.66 2 1 C-0.23407889 4.35111834 -1.26215824 5.81553956 -5.25 6.8125 C-6.61125 6.9053125 -6.61125 6.9053125 -8 7 C-3.76744186 1.25581395 -3.76744186 1.25581395 0 0 Z " fill="#66A736" transform="translate(62,337)"/>
<path d="M0 0 C0.66 0.99 1.32 1.98 2 3 C1.3203125 5.26171875 1.3203125 5.26171875 0.125 7.6875 C-0.45894531 8.89986328 -0.45894531 8.89986328 -1.0546875 10.13671875 C-1.52261719 11.05904297 -1.52261719 11.05904297 -2 12 C-2.66 12 -3.32 12 -4 12 C-2.66666667 8 -1.33333333 4 0 0 Z " fill="#F3D15B" transform="translate(39,156)"/>
<path d="M0 0 C6.75 2.75 6.75 2.75 9 5 C5.53058454 4.54177532 2.32604951 4.10868317 -1 3 C-0.67 2.01 -0.34 1.02 0 0 Z " fill="#7CBC8E" transform="translate(178,466)"/>
<path d="M0 0 C1.27875 0.103125 2.5575 0.20625 3.875 0.3125 C4.95394531 0.39951172 4.95394531 0.39951172 6.0546875 0.48828125 C8 1 8 1 10 4 C5.66905042 4 3.72965139 3.03435531 0 1 C0 0.67 0 0.34 0 0 Z " fill="#6AB480" transform="translate(126,444)"/>
<path d="M0 0 C0.66 0.33 1.32 0.66 2 1 C0.4375 3 0.4375 3 -2 5 C-5.75 5.25 -5.75 5.25 -9 5 C-6.32239719 2.32239719 -3.52050129 1.32018799 0 0 Z " fill="#6DB982" transform="translate(315,370)"/>
<path d="M0 0 C0.33 0 0.66 0 1 0 C1 1.98 1 3.96 1 6 C-0.98 6.33 -2.96 6.66 -5 7 C-4.6875 5.0625 -4.6875 5.0625 -4 3 C-3.01 2.67 -2.02 2.34 -1 2 C-0.67 1.34 -0.34 0.68 0 0 Z " fill="#508BEC" transform="translate(363,327)"/>
<path d="M0 0 C2.64 1.98 5.28 3.96 8 6 C4.30581799 6 2.22163822 4.71820705 -1 3 C-0.67 2.01 -0.34 1.02 0 0 Z " fill="#FEAF1D" transform="translate(45,149)"/>
<path d="M0 0 C0.33 0.66 0.66 1.32 1 2 C1.66 2 2.32 2 3 2 C3 2.66 3 3.32 3 4 C1.03852126 5.38938077 -0.96166576 6.7260411 -3 8 C-3 6.35 -3 4.7 -3 3 C-2.01 3 -1.02 3 0 3 C0 2.01 0 1.02 0 0 Z " fill="#E3766B" transform="translate(346,129)"/>
<path d="M0 0 C0 0.66 0 1.32 0 2 C-0.99 2.495 -0.99 2.495 -2 3 C-2 3.99 -2 4.98 -2 6 C-4.31 5.67 -6.62 5.34 -9 5 C-6.45523312 2.20075644 -3.92372883 0 0 0 Z " fill="#E57B70" transform="translate(142,47)"/>
<path d="M0 0 C1.875 0.25 1.875 0.25 4 1 C5.25 3.0625 5.25 3.0625 6 5 C5.01 5.495 5.01 5.495 4 6 C2.62437146 4.71034824 1.29233607 3.37310707 0 2 C0 1.34 0 0.68 0 0 Z " fill="#5BB478" transform="translate(145,452)"/>
<path d="M0 0 C2.475 0.495 2.475 0.495 5 1 C5 1.66 5 2.32 5 3 C6.65 3.33 8.3 3.66 10 4 C9.34 4.66 8.68 5.32 8 6 C6.66402348 5.19185349 5.331275 4.37836819 4 3.5625 C3.2575 3.11003906 2.515 2.65757812 1.75 2.19140625 C1.1725 1.79824219 0.595 1.40507812 0 1 C0 0.67 0 0.34 0 0 Z " fill="#73B885" transform="translate(117,438)"/>
<path d="M0 0 C3.40312738 1.05875074 6.01353231 2.00902154 9 4 C8.67 4.66 8.34 5.32 8 6 C5.525 5.01 5.525 5.01 3 4 C3 3.34 3 2.68 3 2 C2.01 2 1.02 2 0 2 C0 1.34 0 0.68 0 0 Z " fill="#74B886" transform="translate(185,368)"/>
<path d="M0 0 C3 1 3 1 4.6875 4.0625 C5.120625 5.031875 5.55375 6.00125 6 7 C5.34 7.66 4.68 8.32 4 9 C0 2.25 0 2.25 0 0 Z " fill="#75BC88" transform="translate(47,358)"/>
<path d="M0 0 C0.68707555 2.49064888 1 4.37886292 1 7 C-1.97 6.505 -1.97 6.505 -5 6 C-3.35 4.02 -1.7 2.04 0 0 Z " fill="#659AEB" transform="translate(348,345)"/>
<path d="M0 0 C0.66 0 1.32 0 2 0 C1.01 3.3 0.02 6.6 -1 10 C-1.33 10 -1.66 10 -2 10 C-2.33 7.36 -2.66 4.72 -3 2 C-2.01 2.33 -1.02 2.66 0 3 C0 2.01 0 1.02 0 0 Z " fill="#DC665C" transform="translate(125,194)"/>
<path d="M0 0 C-1.92576115 2.43929746 -3.80090595 4.80090595 -6 7 C-6 4.69 -6 2.38 -6 0 C-3.50907189 -1.24546405 -2.58919267 -0.7767578 0 0 Z " fill="#E07368" transform="translate(153,157)"/>
<path d="M0 0 C-0.33 0.99 -0.66 1.98 -1 3 C-4.63 3.33 -8.26 3.66 -12 4 C-8.14070855 1.42713903 -4.66785662 0 0 0 Z " fill="#E1817A" transform="translate(183,30)"/>
<path d="M0 0 C1.32 0.66 2.64 1.32 4 2 C2.02 3.32 0.04 4.64 -2 6 C-2.33 4.68 -2.66 3.36 -3 2 C-2.01 2 -1.02 2 0 2 C0 1.34 0 0.68 0 0 Z " fill="#6D9BEA" transform="translate(405,413)"/>
<path d="M0 0 C2.52588702 2.36292656 3.88820837 3.66462511 5 7 C3.68 7 2.36 7 1 7 C0.67 4.69 0.34 2.38 0 0 Z " fill="#71B986" transform="translate(146,335)"/>
<path d="M0 0 C-2.35277269 2.72426311 -4.62496331 3.8141763 -8 5 C-8 4.01 -8 3.02 -8 2 C-4.77208445 -0.1519437 -3.71599191 -0.20086443 0 0 Z " fill="#5AB076" transform="translate(367,447)"/>
<path d="M0 0 C2 1 2 1 3 2 C3.04063832 3.66617115 3.042721 5.33388095 3 7 C1.35 5.35 -0.3 3.7 -2 2 C-1.34 2 -0.68 2 0 2 C0 1.34 0 0.68 0 0 Z " fill="#60B273" transform="translate(92,413)"/>
<path d="M0 0 C0.556875 0.33 1.11375 0.66 1.6875 1 C4.30284522 2.1309601 6.1806646 2.15662974 9 2 C8.67 3.32 8.34 4.64 8 6 C4.08597051 4.73058503 2.20927127 3.48832306 0 0 Z " fill="#3C90C5" transform="translate(343,378)"/>
<path d="M0 0 C-2.90092502 1.93395001 -3.89674737 2.30131941 -7.1875 2.625 C-8.445625 2.74875 -9.70375 2.8725 -11 3 C-8.21756596 -1.17365106 -4.53441502 -0.22300402 0 0 Z " fill="#55AA71" transform="translate(328,367)"/>
<path d="M0 0 C7.75 1.875 7.75 1.875 10 3 C10 3.66 10 4.32 10 5 C8.51800098 4.55090939 7.03944764 4.09043436 5.5625 3.625 C4.73878906 3.36976563 3.91507812 3.11453125 3.06640625 2.8515625 C1 2 1 2 0 0 Z " fill="#DC736D" transform="translate(309,129)"/>
<path d="M0 0 C5.75 0.75 5.75 0.75 8 3 C8 3.66 8 4.32 8 5 C4.62496331 3.8141763 2.35277269 2.72426311 0 0 Z " fill="#E06D63" transform="translate(300,124)"/>
<path d="M0 0 C0.33 0 0.66 0 1 0 C1 1.98 1 3.96 1 6 C-0.65 6.33 -2.3 6.66 -4 7 C-2.68 4.69 -1.36 2.38 0 0 Z " fill="#E36F66" transform="translate(70,105)"/>
<path d="M0 0 C0.66 0 1.32 0 2 0 C1.6875 2.375 1.6875 2.375 1 5 C0.01 5.66 -0.98 6.32 -2 7 C-2.33 5.35 -2.66 3.7 -3 2 C-2.34 2 -1.68 2 -1 2 C-0.67 1.34 -0.34 0.68 0 0 Z " fill="#E36C61" transform="translate(387,88)"/>
<path d="M0 0 C0.66 1.32 1.32 2.64 2 4 C0.68 4.99 -0.64 5.98 -2 7 C-2.66 6.67 -3.32 6.34 -4 6 C-3.34 4.68 -2.68 3.36 -2 2 C-1.34 2 -0.68 2 0 2 C0 1.34 0 0.68 0 0 Z " fill="#DE695B" transform="translate(98,76)"/>
<path d="M0 0 C1.32 0 2.64 0 4 0 C6.25 2.5 6.25 2.5 8 5 C6.68 5 5.36 5 4 5 C4 4.34 4 3.68 4 3 C2.68 2.67 1.36 2.34 0 2 C0 1.34 0 0.68 0 0 Z " fill="#46A863" transform="translate(183,467)"/>
<path d="M0 0 C0.66 0.33 1.32 0.66 2 1 C2 1.66 2 2.32 2 3 C-1.37462715 2.45276317 -3.08235 1.9451 -6 0 C-3.4832097 -1.25839515 -2.62168527 -0.81927665 0 0 Z " fill="#54AC6C" transform="translate(157,458)"/>
<path d="M0 0 C-2.97 2.475 -2.97 2.475 -6 5 C-6.33 4.34 -6.66 3.68 -7 3 C-6.67 2.01 -6.34 1.02 -6 0 C-3.42525708 -0.99667468 -2.51072708 -1.25536354 0 0 Z " fill="#BBB926" transform="translate(77,327)"/>
<path d="M0 0 C-4.75 2.875 -4.75 2.875 -7 4 C-7 3.34 -7 2.68 -7 2 C-7.66 1.67 -8.32 1.34 -9 1 C-5.57367167 -0.61798838 -3.61944899 -1.34053666 0 0 Z " fill="#EABE18" transform="translate(107,304)"/>
<path d="M0 0 C0.66 0.33 1.32 0.66 2 1 C2.1875 3.375 2.1875 3.375 2 6 C1.01 6.66 0.02 7.32 -1 8 C-0.67 5.36 -0.34 2.72 0 0 Z " fill="#4E81D8" transform="translate(372,297)"/>
<path d="M0 0 C3.057952 1.73559438 5.63379989 3.38472619 8 6 C6.68 6 5.36 6 4 6 C4 5.34 4 4.68 4 4 C3.01 4 2.02 4 1 4 C0.67 2.68 0.34 1.36 0 0 Z " fill="#FBA21F" transform="translate(76,173)"/>
<path d="M0 0 C1.98 0.495 1.98 0.495 4 1 C2.69593116 3.01920337 1.36176581 5.01924973 0 7 C-0.33 7 -0.66 7 -1 7 C-0.67 4.69 -0.34 2.38 0 0 Z " fill="#DF7C6C" transform="translate(137,171)"/>
<path d="M0 0 C-5.75 4 -5.75 4 -8 4 C-8 3.01 -8 2.02 -8 1 C-4.93251126 -0.86240388 -3.40254489 -1.2151946 0 0 Z " fill="#DC7365" transform="translate(178,137)"/>
<path d="M0 0 C0.66 0.99 1.32 1.98 2 3 C1.125 5.6875 1.125 5.6875 0 8 C-0.66 8 -1.32 8 -2 8 C-2.20086443 4.28400809 -2.1519437 3.22791555 0 0 Z " fill="#E4594D" transform="translate(85,88)"/>
</svg>
